<?xml version="1.0" encoding="UTF-8"?>
<svg id="l-header__logo" xmlns="http://www.w3.org/2000/svg" viewBox="0 0 2000 2000">
  <defs>
    <style>
      .cls-1 {
        fill: #445fac;
        stroke-width: 0px;
      }
    </style>
  </defs>
  <g>
    <path class="cls-1" d="M335.47,1054.37h-20.52l-10.42-28.95h-43.19l-10.72,28.95h-19.75l42.12-109.2h20.37l42.12,109.2ZM283.25,965.09l-17,45.94h33.24l-16.23-45.94Z"/>
    <path class="cls-1" d="M405.86,977.48c-1.13-12.76-9.04-19.14-23.74-19.14-6.53,0-11.64,1.36-15.32,4.07-3.67,2.7-5.51,6.41-5.51,11.09,0,4.4,1.35,7.41,4.06,9.04,2.71,1.63,8.7,3.62,18,5.97,2.45.72,4.33,1.23,5.66,1.54,12.15,3.05,20.42,5.82,24.81,8.26,9.7,5.21,14.55,13.33,14.55,24.35,0,4.79-.82,9.14-2.45,13.02-1.63,3.88-3.83,7.12-6.59,9.73-2.75,2.61-6.02,4.77-9.8,6.5-3.77,1.74-7.71,2.99-11.79,3.76-4.08.77-8.32,1.15-12.71,1.15-13.68,0-24.76-3.27-33.23-9.8-8.47-6.53-12.71-16.13-12.71-28.8h18.84c0,7.97,2.6,13.86,7.81,17.69,5.21,3.82,12,5.73,20.37,5.73,7.35,0,13.1-1.51,17.23-4.52,4.14-3.01,6.2-7.22,6.2-12.63,0-3.47-1.09-6.31-3.29-8.5-2.19-2.2-4.56-3.76-7.12-4.68-2.55-.92-6.99-2.19-13.32-3.82-.72-.2-1.28-.36-1.69-.46-13.58-3.47-22.51-6.33-26.8-8.57-8.88-4.6-13.63-11.69-14.24-21.29v-2.15c0-9.69,3.65-17.44,10.95-23.2,7.3-5.77,17.08-8.66,29.33-8.66s21.49,2.81,28.95,8.42c7.45,5.62,11.38,14.24,11.79,25.88h-18.23Z"/>
    <path class="cls-1" d="M519.44,1054.37h-74.73v-109.05h19.3v92.51h55.44v16.54Z"/>
    <path class="cls-1" d="M611.13,961.4h-59.57v28.95h55.29v15.47h-55.29v32.16h60.49v16.39h-79.48v-109.05h78.56v16.08Z"/>
  </g>
  <g>
    <path class="cls-1" d="M1492.55,1054.37h-20.52l-10.41-28.95h-43.19l-10.72,28.95h-19.75l42.11-109.2h20.37l42.11,109.2ZM1440.33,965.09l-17,45.94h33.24l-16.24-45.94Z"/>
    <path class="cls-1" d="M1562.94,977.48c-1.12-12.76-9.03-19.14-23.74-19.14-6.53,0-11.64,1.36-15.32,4.07-3.67,2.7-5.51,6.41-5.51,11.09,0,4.4,1.36,7.41,4.06,9.04,2.71,1.63,8.7,3.62,18,5.97,2.45.72,4.33,1.23,5.66,1.54,12.15,3.05,20.43,5.82,24.81,8.26,9.69,5.21,14.55,13.33,14.55,24.35,0,4.79-.82,9.14-2.46,13.02-1.63,3.88-3.82,7.12-6.59,9.73-2.75,2.61-6.02,4.77-9.8,6.5-3.77,1.74-7.71,2.99-11.79,3.76-4.09.77-8.32,1.15-12.72,1.15-13.68,0-24.76-3.27-33.23-9.8-8.48-6.53-12.72-16.13-12.72-28.8h18.85c0,7.97,2.59,13.86,7.81,17.69,5.21,3.82,12,5.73,20.37,5.73,7.35,0,13.09-1.51,17.22-4.52,4.14-3.01,6.2-7.22,6.2-12.63,0-3.47-1.09-6.31-3.29-8.5-2.2-2.2-4.57-3.76-7.12-4.68-2.55-.92-6.99-2.19-13.33-3.82-.72-.2-1.27-.36-1.69-.46-13.57-3.47-22.51-6.33-26.8-8.57-8.88-4.6-13.62-11.69-14.24-21.29v-2.15c0-9.69,3.65-17.44,10.95-23.2,7.29-5.77,17.07-8.66,29.33-8.66s21.49,2.81,28.95,8.42c7.45,5.62,11.38,14.24,11.79,25.88h-18.23Z"/>
    <path class="cls-1" d="M1676.53,1054.37h-74.74v-109.05h19.3v92.51h55.44v16.54Z"/>
    <path class="cls-1" d="M1768.21,961.4h-59.58v28.95h55.3v15.47h-55.3v32.16h60.5v16.39h-79.48v-109.05h78.56v16.08Z"/>
  </g>
</svg>