<?xml version="1.0" encoding="UTF-8"?>
<svg xmlns="http://www.w3.org/2000/svg" version="1.1" viewBox="0 0 1538.6 114">
  <defs>
    <style>
      .cls-1 {
        fill: #445fac;
      }
    </style>
  </defs>
  <!-- Generator: Adobe Illustrator 28.6.0, SVG Export Plug-In . SVG Version: 1.2.0 Build 709)  -->
  <g>
    <g id="l-header__logo">
      <g>
        <path class="cls-1" d="M104.8,111.4h-20.5l-10.4-28.9H30.6l-10.7,28.9H.2L42.3,2.2h20.4l42.1,109.2h0ZM52.6,22.1l-17,45.9h33.2l-16.2-45.9h0Z"/>
        <path class="cls-1" d="M175.2,34.5c-1.1-12.8-9-19.1-23.7-19.1s-11.6,1.4-15.3,4.1c-3.7,2.7-5.5,6.4-5.5,11.1s1.4,7.4,4.1,9,8.7,3.6,18,6c2.5.7,4.3,1.2,5.7,1.5,12.1,3,20.4,5.8,24.8,8.3,9.7,5.2,14.5,13.3,14.5,24.3s-.8,9.1-2.5,13-3.8,7.1-6.6,9.7c-2.8,2.6-6,4.8-9.8,6.5-3.8,1.7-7.7,3-11.8,3.8-4.1.8-8.3,1.2-12.7,1.2-13.7,0-24.8-3.3-33.2-9.8s-12.7-16.1-12.7-28.8h18.8c0,8,2.6,13.9,7.8,17.7,5.2,3.8,12,5.7,20.4,5.7s13.1-1.5,17.2-4.5c4.1-3,6.2-7.2,6.2-12.6s-1.1-6.3-3.3-8.5c-2.2-2.2-4.6-3.8-7.1-4.7-2.5-.9-7-2.2-13.3-3.8-.7-.2-1.3-.4-1.7-.5-13.6-3.5-22.5-6.3-26.8-8.6-8.9-4.6-13.6-11.7-14.2-21.3v-2.2c0-9.7,3.6-17.4,11-23.2C130.6,3.1,140.4.2,152.7.2s21.5,2.8,29,8.4c7.5,5.6,11.4,14.2,11.8,25.9h-18.2Z"/>
        <path class="cls-1" d="M288.7,111.4h-74.7V2.3h19.3v92.5h55.4v16.5h0Z"/>
        <path class="cls-1" d="M380.4,18.4h-59.6v29h55.3v15.5h-55.3v32.2h60.5v16.4h-79.5V2.3h78.6v16.1Z"/>
      </g>
      <g>
        <path class="cls-1" d="M1261.9,111.4h-20.5l-10.4-28.9h-43.2l-10.7,28.9h-19.8l42.1-109.2h20.4l42.1,109.2ZM1209.6,22.1l-17,45.9h33.2l-16.2-45.9Z"/>
        <path class="cls-1" d="M1332.2,34.5c-1.1-12.8-9-19.1-23.7-19.1s-11.6,1.4-15.3,4.1c-3.7,2.7-5.5,6.4-5.5,11.1s1.4,7.4,4.1,9c2.7,1.6,8.7,3.6,18,6,2.4.7,4.3,1.2,5.7,1.5,12.2,3,20.4,5.8,24.8,8.3,9.7,5.2,14.6,13.3,14.6,24.3s-.8,9.1-2.5,13c-1.6,3.9-3.8,7.1-6.6,9.7-2.8,2.6-6,4.8-9.8,6.5-3.8,1.7-7.7,3-11.8,3.8-4.1.8-8.3,1.2-12.7,1.2-13.7,0-24.8-3.3-33.2-9.8-8.5-6.5-12.7-16.1-12.7-28.8h18.8c0,8,2.6,13.9,7.8,17.7,5.2,3.8,12,5.7,20.4,5.7s13.1-1.5,17.2-4.5c4.1-3,6.2-7.2,6.2-12.6s-1.1-6.3-3.3-8.5c-2.2-2.2-4.6-3.8-7.1-4.7s-7-2.2-13.3-3.8c-.7-.2-1.3-.4-1.7-.5-13.6-3.5-22.5-6.3-26.8-8.6-8.9-4.6-13.6-11.7-14.2-21.3v-2.2c0-9.7,3.7-17.4,10.9-23.2,7.3-5.8,17.1-8.7,29.3-8.7s21.5,2.8,28.9,8.4c7.4,5.6,11.4,14.2,11.8,25.9h-18.2,0Z"/>
        <path class="cls-1" d="M1445.8,111.4h-74.7V2.3h19.3v92.5h55.4v16.5Z"/>
        <path class="cls-1" d="M1537.5,18.4h-59.6v29h55.3v15.5h-55.3v32.2h60.5v16.4h-79.5V2.3h78.6v16.1Z"/>
      </g>
    </g>
  </g>
</svg>