<?xml version="1.0" encoding="UTF-8"?>
<svg id="l-header__logo" xmlns="http://www.w3.org/2000/svg" viewBox="0 0 280 72.42">
  <defs>
    <style>
      .cls-1 {
        fill: #722128;
      }

      .cls-1, .cls-2 {
        stroke-width: 0px;
      }

      .cls-2 {
        fill: #445fac;
      }
    </style>
  </defs>
  <g>
    <path class="cls-1" d="M252.5,33.5c.67-.86,1.22-1.51,1.71-2.21.82-1.18,1.71-2.33,2.35-3.61.84-1.66.54-3.49-.91-4.46-.74-.5-2.36,0-3.46.4-.98.35-1.84,1.12-2.66,1.82-2.98,2.55-5.91,5.15-8.86,7.73,2.31-3.53,4.9-6.82,7.69-9.96,2.15-2.42,4.54-4.62,6.8-6.94,1.11-1.14,1.29-2.56.16-3.6-.34-.31-1.86.35-2.64.87-2.25,1.51-4.39,3.17-6.57,4.78-.08.06-.11.2-.16.3.56.08,1.1.16,1.41.21-3.44,4.5-6.87,9.01-10.33,13.49-.28.37-.73.68-1.16.86-2.3.93-4.63,1.8-7.3,2.83,2.08-2.91,3.98-5.65,5.97-8.33.98-1.33,1.07-2.53-.29-3.55-1.45-1.08-1.96.34-2.7,1.15-4.1,4.51-8.19,9.04-12.34,13.5-.66.71-1.62,1.14-2.45,1.69,0-1.23.27-2.12.77-2.86,1.72-2.56,3.53-5.07,5.29-7.61.61-.88,1.46-1.73,1.69-2.72.19-.82-.39-1.8-.63-2.71-.79.27-1.82.32-2.33.85-1.81,1.87-3.46,3.89-5.17,5.87.34.05.7.1,1.08.15-1.95,4.31-6.74,3.41-9.76,5.74,2.08-3.53,4.3-6.87,6.83-9.96,2.64-3.22,5.59-6.19,8.38-9.29,1-1.1,1.23-2.4.13-3.47-1.24-1.2-1.98.15-2.85.83-1.96,1.54-3.97,3.02-5.94,4.54-.08.06-.06.24-.11.46.59.08,1.17.16,1.98.27-.46.53-.72.86-1,1.16-5.42,5.82-10.18,12.1-13.56,19.34-.39.84-.99,1.82-.83,2.61.2.98,1.09,1.83,1.67,2.73.66-.43,1.45-.75,1.94-1.32.97-1.15,1.75-2.46,2.65-3.67,1.75-2.34,4-4.01,7.17-5.26-.42.85-.63,1.27-.83,1.69-.6,1.3-1.63,2.6-1.66,3.91-.03,1.31.81,2.73,1.61,3.87.16.22,2.02-.44,2.82-1.05,1.3-1,2.39-2.28,3.54-3.46,1.49-1.53,2.96-3.09,4.44-4.63-.56,2.05-1.61,3.82-2.03,5.73-.19.87.86,2.01,1.35,3.03.76-.46,1.69-.78,2.23-1.42,1.33-1.59,2.29-3.52,3.75-4.98,1.55-1.55,3.5-2.7,5.27-4.02.13.18.26.35.39.53-.48,1.03-1.06,2.04-1.44,3.11-.69,1.96.04,4.27,1.71,5.65,1.57,1.3,3.03.4,4.38-.39,1.98-1.17,3.94-2.4,5.77-3.79,3.71-2.83,7.76-4.92,12.23-6.24,1.03-.3,2.02-.71,3.03-1.06v-.86c-2.67.56-5.33,1.12-8.22,1.72ZM237.83,40.71c.33-3.84,9.28-11.41,14.18-11.97-3.81,4.91-7.94,9.47-14.18,11.97Z"/>
    <path class="cls-1" d="M113.82,40.78c3.01-2.83,6.02-5.66,9.05-8.48.68-.64,1.4-1.25,2.13-1.83,2.33-1.85,3-1.71,4.41.87,3.96-.11,6.41-2.09,8.34-5.57,1.28-2.31,4.29-2.77,6.75-3.56l.52.59c-1.67,1.94-3.34,3.87-5.28,6.12,1.77-.21,3.24-.38,4.9-.58-.25,1.97-1.45,2.76-2.81,2.69-4.22-.23-6.29,2.45-8.18,5.53-1,1.64-2.04,3.25-3.23,5.15,3.32-1.33,6.28-2.52,8.52-3.42,1.07-1.72,1.59-3.24,2.64-4.15,3.6-3.1,7.9-4.97,12.5-6.08.72-.17,2.06.31,2.41.9.78,1.33-.52,1.77-1.49,2.28-1.36.72-2.68,1.52-4.08,2.32-1.03-1.24-4.87.46-6.55,3.39,5.08,1.6,10.1,2.02,15.26-.29.03.32.05.64.08.96-.28.24-.53.6-.86.7-7.85,2.35-14.57,6.79-21.22,11.36-.9.62-1.78,1.8-2.83.21-.91-1.37-.47-2.53.81-3.3,3.63-2.19,7.31-4.3,10.98-6.44.35-.21.71-.4,1.18-.67-6.98-1.46-14.34,1.45-18.33,6.97-.67.93-1.25,1.95-2.02,2.79-.51.54-1.68,1.31-1.89,1.14-.71-.56-1.48-1.46-1.56-2.3-.09-.99.33-2.14.84-3.04,2.02-3.55,4.17-7.04,6.28-10.55.33-.54.7-1.06,1.09-1.65-4.12.03-7.65,3.57-8.3,8.17-2.63-.53-3.16-1.32-2.49-4.64-2.3,1.99-4.37,3.4-5.96,5.23-2.26,2.59-4.13,5.52-6.28,8.2-.56.7-1.79,1.63-2.31,1.43-1.44-.56-1.85-1.97-1.13-3.41.99-1.99,2.09-3.91,3.15-5.87-.1-.18-.21-.36-.31-.55-2.27,1.23-4.67,2.28-6.77,3.75-2.47,1.72-4.67,3.83-7.03,5.72-1.09.87-2.19,2.16-3.8,1.09-1.75-1.16-2.71-2.85-2.3-4.97.27-1.38.9-2.69,1.12-4.54-2.7,1.37-5.47,2.61-8.07,4.14-3.4,2-6.61,4.33-10.01,6.33-1.57.92-3.34,1.1-4.52-1.05-2.49,3.65-4.89,7.2-7.33,10.73-.94,1.36-1.91,2.71-3.01,3.93-.45.49-1.67,1.02-1.9.82-.62-.55-1.26-1.51-1.22-2.27.07-1.09.6-2.22,1.19-3.18.86-1.4,1.79-2.82,2.96-3.96,5.56-5.39,8.76-12.42,13.2-18.59.06-.09,0-.26,0-.47-.81.05-1.62.1-2.17.14,2.13-1.93,4.31-3.98,6.58-5.92.51-.43,1.73-.85,1.98-.61.52.5.98,1.56.79,2.18-.35,1.12-1.14,2.13-1.86,3.1-1.09,1.48-2.28,2.89-3.15,4.58,2.13-1.95,4.18-4,6.4-5.83,1.99-1.64,4.1-3.18,6.29-4.54,2.16-1.34,4.1-.29,3.79,2.22-.25,1.94-1.41,3.8-2.32,5.62-.44.88-1.22,1.58-1.74,2.53,2.82-1.05,5.85-1.16,8.13-3.89,2.31-2.76,5.43-4.87,8.32-7.11,1.37-1.06,3.07-1.41,4.58-.12,1.47,1.25,1.17,2.88.52,4.37-.85,1.95-1.91,3.81-3.11,6.16,2.94-1.72,6.82-.98,8.09-5.08-.73.05-1.33.1-1.87.14,2.08-2.23,4.09-4.5,6.26-6.59.29-.28,1.73.03,2.04.48.9,1.27.39,2.56-.53,3.73-1.57,1.99-3.08,4.03-4.62,6.05.13.1.25.2.38.3ZM92.45,47.37c.16.17.31.34.47.51.77-.27,1.62-.4,2.29-.82,4-2.48,7.06-5.86,9.18-10.04.29-.57.2-1.33.28-2.01-.73.1-1.59-.02-2.16.34-4.05,2.5-7.26,5.84-9.49,10.06-.31.59-.39,1.31-.58,1.96ZM84.5,37.51c-4.47.27-13.3,7.68-14.04,11.77,6.35-2.23,10.34-6.81,14.04-11.77Z"/>
    <path class="cls-1" d="M59,24.65c.71-.66,1.42-1.31,2.12-1.97-6.68.92-12.9,2.93-18.55,6.46-.52.33-1.14,1.2-1.02,1.64.13.49,1.01,1,1.63,1.1,4.25.73,8.52,1.38,12.79,1.99,3.31.47,5.66,1.92,6.33,5.47.1.54.86,1,1.38,1.42.94.77,1.93,1.48,2.9,2.21-.12.17-.23.34-.35.51-1.18-.54-2.36-1.09-3.67-1.69-2.99,7.54-9.37,10.86-16.08,13.65-6.33,2.64-12.86,4.69-19.82,4.82-3.76.07-6.17-2.14-7.06-6.23-.89-4.1,0-6.04,3.89-7.72,10.22-4.41,20.88-6.9,32.04-7.13,1.21-.03,2.42.14,3.93.23.1-1.84-.91-2.77-2.43-2.86-3.65-.21-7.32-.22-10.98-.26-1.29-.01-2.59.18-3.88.21-3.15.07-4.46-.92-5.49-4.07-.92-2.83-.53-4.22,2.29-5.95,8.16-5.04,17.16-7.7,26.63-8.8.87-.1,2.57.78,2.66,1.39.16,1.05-.33,2.88-1.1,3.26-2.49,1.24-5.24,1.98-7.9,2.91-.08-.2-.16-.4-.24-.6ZM58.5,41.68l-.41-.67c-.69-.05-1.41-.23-2.08-.13-4.61.68-9.28,1.1-13.78,2.21-6.42,1.58-12.74,3.69-18.09,7.78-1.17.9-2.67,2.77-2.42,3.82.43,1.83,2.72,1.46,4.31,1.33,10.01-.86,19.24-4.04,27.52-9.71,1.84-1.26,3.31-3.06,4.96-4.62Z"/>
    <path class="cls-1" d="M210.37,17.34c-.77.97-1.7,1.7-2.01,2.63-1.04,3.09-3.04,4.73-6.31,4.88-.85.04-1.68.26-3.15.5.99-1.54,1.61-2.77,2.48-3.79.79-.91,1.84-1.6,2.8-2.35,1.54-1.21,2.5-2.83,1.81-4.67-.72-1.93-2.62-1.45-4.15-1.1-9.2,2.13-16.29,7.57-21.88,14.84-2.53,3.29-4.1,7.33-6,11.09-.4.8-.46,1.81-.5,2.73-.15,2.99,1.55,5.04,4.49,4.74,2.51-.25,5.24-.81,7.35-2.09,4.59-2.78,8.86-6.1,13.24-9.23.8-.57,1.48-1.29,2.65-1.76-.15.62-.18,1.31-.48,1.85-3.93,7.11-9.62,12.21-17.6,14.2-7.18,1.8-13.51-3.72-12.85-11.16.23-2.57,1.05-5.26,2.28-7.53,5.59-10.26,13.98-17.18,25.44-20.11,1.17-.3,2.42-.37,3.64-.37,4.17-.02,6.74,2.26,7.31,6.5.48.07,1.01.14,1.44.2Z"/>
  </g>
  <g>
    <g>
      <path class="cls-2" d="M42.92,21.27h-3l-1.52-4.23h-6.31l-1.57,4.23h-2.89l6.15-15.95h2.98l6.15,15.95ZM35.29,8.22l-2.48,6.71h4.86l-2.37-6.71Z"/>
      <path class="cls-2" d="M53.2,10.03c-.16-1.86-1.32-2.8-3.47-2.8-.95,0-1.7.2-2.24.59-.54.39-.8.94-.8,1.62,0,.64.2,1.08.59,1.32s1.27.53,2.63.87c.36.1.63.18.83.22,1.78.45,2.98.85,3.62,1.21,1.42.76,2.13,1.95,2.13,3.56,0,.7-.12,1.34-.36,1.9s-.56,1.04-.96,1.42c-.4.38-.88.7-1.43.95-.55.25-1.13.44-1.72.55s-1.22.17-1.86.17c-2,0-3.62-.48-4.85-1.43-1.24-.95-1.86-2.36-1.86-4.21h2.75c0,1.16.38,2.02,1.14,2.58.76.56,1.75.84,2.98.84,1.07,0,1.91-.22,2.52-.66.6-.44.91-1.05.91-1.85,0-.51-.16-.92-.48-1.24-.32-.32-.67-.55-1.04-.68-.37-.13-1.02-.32-1.95-.56-.1-.03-.19-.05-.25-.07-1.98-.51-3.29-.92-3.92-1.25-1.3-.67-1.99-1.71-2.08-3.11v-.31c0-1.42.53-2.55,1.6-3.39,1.07-.84,2.49-1.27,4.28-1.27s3.14.41,4.23,1.23,1.66,2.08,1.72,3.78h-2.66Z"/>
      <path class="cls-2" d="M69.8,21.27h-10.92V5.34h2.82v13.51h8.1v2.42Z"/>
      <path class="cls-2" d="M83.19,7.69h-8.7v4.23h8.08v2.26h-8.08v4.7h8.84v2.39h-11.61V5.34h11.48v2.35Z"/>
    </g>
    <g>
      <path class="cls-2" d="M211.96,21.27h-3l-1.52-4.23h-6.31l-1.57,4.23h-2.89l6.15-15.95h2.98l6.15,15.95ZM204.33,8.22l-2.48,6.71h4.86l-2.37-6.71Z"/>
      <path class="cls-2" d="M222.24,10.03c-.16-1.86-1.32-2.8-3.47-2.8-.95,0-1.7.2-2.24.59-.54.39-.8.94-.8,1.62,0,.64.2,1.08.59,1.32.4.24,1.27.53,2.63.87.36.1.63.18.83.22,1.78.45,2.98.85,3.63,1.21,1.42.76,2.13,1.95,2.13,3.56,0,.7-.12,1.34-.36,1.9s-.56,1.04-.96,1.42c-.4.38-.88.7-1.43.95-.55.25-1.13.44-1.72.55-.6.11-1.22.17-1.86.17-2,0-3.62-.48-4.85-1.43-1.24-.95-1.86-2.36-1.86-4.21h2.75c0,1.16.38,2.02,1.14,2.58.76.56,1.75.84,2.98.84,1.07,0,1.91-.22,2.52-.66.61-.44.91-1.05.91-1.85,0-.51-.16-.92-.48-1.24-.32-.32-.67-.55-1.04-.68s-1.02-.32-1.95-.56c-.1-.03-.19-.05-.25-.07-1.98-.51-3.29-.92-3.92-1.25-1.3-.67-1.99-1.71-2.08-3.11v-.31c0-1.42.53-2.55,1.6-3.39,1.07-.84,2.49-1.27,4.28-1.27s3.14.41,4.23,1.23c1.09.82,1.66,2.08,1.72,3.78h-2.66Z"/>
      <path class="cls-2" d="M238.83,21.27h-10.92V5.34h2.82v13.51h8.1v2.42Z"/>
      <path class="cls-2" d="M252.23,7.69h-8.7v4.23h8.08v2.26h-8.08v4.7h8.84v2.39h-11.61V5.34h11.48v2.35Z"/>
    </g>
  </g>
</svg>