<?xml version="1.0" encoding="UTF-8"?>
<svg id="l-header__logo" xmlns="http://www.w3.org/2000/svg" viewBox="0 0 90 6.77">
  <defs>
    <style>
      .cls-1 {
        fill: #445fac;
        stroke-width: 0px;
      }
    </style>
  </defs>
  <g>
    <path class="cls-1" d="M9.7,6.27h-1.09l-.55-1.54h-2.29l-.57,1.54h-1.05L6.38.47h1.08l2.24,5.8ZM6.92,1.53l-.9,2.44h1.77l-.86-2.44Z"/>
    <path class="cls-1" d="M13.44,2.19c-.06-.68-.48-1.02-1.26-1.02-.35,0-.62.07-.81.22-.2.14-.29.34-.29.59,0,.23.07.39.22.48s.46.19.96.32c.13.04.23.07.3.08.65.16,1.08.31,1.32.44.52.28.77.71.77,1.29,0,.25-.04.49-.13.69s-.2.38-.35.52c-.15.14-.32.25-.52.35-.2.09-.41.16-.63.2s-.44.06-.68.06c-.73,0-1.32-.17-1.77-.52s-.68-.86-.68-1.53h1c0,.42.14.74.41.94.28.2.64.3,1.08.3.39,0,.7-.08.92-.24.22-.16.33-.38.33-.67,0-.18-.06-.34-.17-.45-.12-.12-.24-.2-.38-.25-.14-.05-.37-.12-.71-.2-.04-.01-.07-.02-.09-.02-.72-.18-1.2-.34-1.42-.46-.47-.24-.72-.62-.76-1.13v-.11c0-.52.19-.93.58-1.23s.91-.46,1.56-.46,1.14.15,1.54.45.6.76.63,1.37h-.97Z"/>
    <path class="cls-1" d="M19.47,6.27h-3.97V.48h1.03v4.91h2.95v.88Z"/>
    <path class="cls-1" d="M24.34,1.33h-3.16v1.54h2.94v.82h-2.94v1.71h3.21v.87h-4.22V.48h4.17v.85Z"/>
  </g>
  <g>
    <path class="cls-1" d="M71.17,6.27h-1.09l-.55-1.54h-2.29l-.57,1.54h-1.05l2.24-5.8h1.08l2.24,5.8ZM68.39,1.53l-.9,2.44h1.77l-.86-2.44Z"/>
    <path class="cls-1" d="M74.91,2.19c-.06-.68-.48-1.02-1.26-1.02-.35,0-.62.07-.81.22-.2.14-.29.34-.29.59,0,.23.07.39.22.48.14.09.46.19.96.32.13.04.23.07.3.08.65.16,1.09.31,1.32.44.52.28.77.71.77,1.29,0,.25-.04.49-.13.69s-.2.38-.35.52c-.15.14-.32.25-.52.35-.2.09-.41.16-.63.2-.22.04-.44.06-.68.06-.73,0-1.32-.17-1.77-.52-.45-.35-.68-.86-.68-1.53h1c0,.42.14.74.41.94.28.2.64.3,1.08.3.39,0,.7-.08.91-.24.22-.16.33-.38.33-.67,0-.18-.06-.34-.17-.45-.12-.12-.24-.2-.38-.25s-.37-.12-.71-.2c-.04-.01-.07-.02-.09-.02-.72-.18-1.2-.34-1.42-.46-.47-.24-.72-.62-.76-1.13v-.11c0-.52.19-.93.58-1.23.39-.31.91-.46,1.56-.46s1.14.15,1.54.45.6.76.63,1.37h-.97Z"/>
    <path class="cls-1" d="M80.94,6.27h-3.97V.48h1.03v4.91h2.95v.88Z"/>
    <path class="cls-1" d="M85.81,1.33h-3.17v1.54h2.94v.82h-2.94v1.71h3.21v.87h-4.22V.48h4.17v.85Z"/>
  </g>
</svg>