<?xml version="1.0" encoding="UTF-8"?>
<svg id="l-header__logo" xmlns="http://www.w3.org/2000/svg" viewBox="0 0 7177.27 3350.01">
  <defs>
    <style>
      .cls-1 {
        fill: #000;
      }

      .cls-1, .cls-2, .cls-3 {
        stroke-width: 0px;
      }

      .cls-2 {
        fill: #445fac;
      }

      .cls-3 {
        fill: #fff;
      }
    </style>
  </defs>
  <rect class="cls-3" width="2647.86" height="348.99"/>
  <polygon class="cls-1" points="1350.52 186.37 1350.52 186.38 1350.52 186.38 1350.52 186.37"/>
  <g>
    <g>
      <path class="cls-2" d="M653.42,207.4h-20.69l-10.5-29.19h-43.55l-10.81,29.19h-19.92l42.47-110.11h20.54l42.47,110.11ZM600.76,117.37l-17.15,46.33h33.52l-16.37-46.33Z"/>
      <path class="cls-2" d="M724.4,129.87c-1.14-12.87-9.11-19.3-23.94-19.3-6.59,0-11.74,1.37-15.44,4.1-3.7,2.72-5.56,6.46-5.56,11.19,0,4.44,1.36,7.47,4.09,9.12,2.73,1.65,8.77,3.65,18.15,6.02,2.47.72,4.37,1.24,5.71,1.55,12.25,3.08,20.59,5.87,25.02,8.33,9.78,5.25,14.67,13.44,14.67,24.56,0,4.83-.82,9.22-2.47,13.12-1.65,3.91-3.86,7.18-6.64,9.81-2.78,2.63-6.07,4.81-9.88,6.56-3.81,1.75-7.77,3.01-11.89,3.79-4.12.78-8.39,1.16-12.82,1.16-13.8,0-24.97-3.29-33.51-9.88-8.54-6.59-12.82-16.27-12.82-29.04h19c0,8.03,2.62,13.97,7.88,17.84,5.25,3.85,12.1,5.78,20.54,5.78,7.41,0,13.2-1.52,17.37-4.55,4.17-3.04,6.26-7.28,6.26-12.74,0-3.5-1.1-6.36-3.32-8.57-2.21-2.22-4.6-3.79-7.18-4.72-2.57-.93-7.05-2.21-13.43-3.85-.72-.2-1.29-.37-1.7-.46-13.69-3.5-22.7-6.38-27.02-8.65-8.96-4.64-13.74-11.79-14.36-21.47v-2.16c0-9.78,3.68-17.58,11.04-23.4,7.36-5.81,17.22-8.73,29.58-8.73s21.67,2.83,29.19,8.49c7.51,5.66,11.48,14.36,11.89,26.1h-18.38Z"/>
      <path class="cls-2" d="M838.93,207.4h-75.36v-109.96h19.46v93.28h55.9v16.68Z"/>
      <path class="cls-2" d="M931.38,113.66h-60.07v29.19h55.75v15.6h-55.75v32.43h61v16.53h-80.14v-109.96h79.22v16.21Z"/>
    </g>
    <g>
      <path class="cls-2" d="M1820.16,207.4h-20.69l-10.5-29.19h-43.55l-10.81,29.19h-19.92l42.46-110.11h20.54l42.46,110.11ZM1767.5,117.37l-17.14,46.33h33.52l-16.38-46.33Z"/>
      <path class="cls-2" d="M1891.14,129.87c-1.13-12.87-9.11-19.3-23.93-19.3-6.59,0-11.74,1.37-15.45,4.1-3.7,2.72-5.56,6.46-5.56,11.19,0,4.44,1.37,7.47,4.09,9.12,2.73,1.65,8.77,3.65,18.15,6.02,2.47.72,4.37,1.24,5.71,1.55,12.25,3.08,20.6,5.87,25.02,8.33,9.78,5.25,14.67,13.44,14.67,24.56,0,4.83-.83,9.22-2.48,13.12-1.65,3.91-3.85,7.18-6.64,9.81-2.78,2.63-6.07,4.81-9.88,6.56-3.8,1.75-7.77,3.01-11.89,3.79-4.12.78-8.39,1.16-12.82,1.16-13.79,0-24.97-3.29-33.5-9.88-8.55-6.59-12.82-16.27-12.82-29.04h19c0,8.03,2.62,13.97,7.87,17.84,5.25,3.85,12.1,5.78,20.54,5.78,7.41,0,13.2-1.52,17.37-4.55,4.18-3.04,6.26-7.28,6.26-12.74,0-3.5-1.1-6.36-3.32-8.57-2.22-2.22-4.61-3.79-7.18-4.72-2.57-.93-7.05-2.21-13.44-3.85-.72-.2-1.28-.37-1.7-.46-13.68-3.5-22.7-6.38-27.02-8.65-8.96-4.64-13.74-11.79-14.36-21.47v-2.16c0-9.78,3.68-17.58,11.05-23.4,7.35-5.81,17.22-8.73,29.58-8.73s21.67,2.83,29.19,8.49c7.51,5.66,11.48,14.36,11.89,26.1h-18.38Z"/>
      <path class="cls-2" d="M2005.67,207.4h-75.36v-109.96h19.47v93.28h55.9v16.68Z"/>
      <path class="cls-2" d="M2098.13,113.66h-60.08v29.19h55.76v15.6h-55.76v32.43h61v16.53h-80.14v-109.96h79.22v16.21Z"/>
    </g>
  </g>
  <g>
    <g>
      <path class="cls-2" d="M1122.05,2412.35h-1.09l-.55-1.54h-2.29l-.57,1.54h-1.05l2.24-5.8h1.08l2.24,5.8ZM1119.28,2407.6l-.9,2.44h1.77l-.86-2.44Z"/>
      <path class="cls-2" d="M1125.79,2408.26c-.06-.68-.48-1.02-1.26-1.02-.35,0-.62.07-.81.22-.2.14-.29.34-.29.59,0,.23.07.39.22.48s.46.19.96.32c.13.04.23.07.3.08.65.16,1.08.31,1.32.44.52.28.77.71.77,1.29,0,.25-.04.49-.13.69s-.2.38-.35.52c-.15.14-.32.25-.52.35-.2.09-.41.16-.63.2s-.44.06-.68.06c-.73,0-1.32-.17-1.77-.52s-.68-.86-.68-1.53h1c0,.42.14.74.41.94.28.2.64.3,1.08.3.39,0,.7-.08.92-.24.22-.16.33-.38.33-.67,0-.18-.06-.34-.17-.45-.12-.12-.24-.2-.38-.25-.14-.05-.37-.12-.71-.2-.04-.01-.07-.02-.09-.02-.72-.18-1.2-.34-1.42-.46-.47-.24-.72-.62-.76-1.13v-.11c0-.52.19-.93.58-1.23s.91-.46,1.56-.46,1.14.15,1.54.45.6.76.63,1.37h-.97Z"/>
      <path class="cls-2" d="M1131.82,2412.35h-3.97v-5.79h1.03v4.91h2.95v.88Z"/>
      <path class="cls-2" d="M1136.69,2407.41h-3.16v1.54h2.94v.82h-2.94v1.71h3.21v.87h-4.22v-5.79h4.17v.85Z"/>
    </g>
    <g>
      <path class="cls-2" d="M1183.52,2412.35h-1.09l-.55-1.54h-2.29l-.57,1.54h-1.05l2.24-5.8h1.08l2.24,5.8ZM1180.75,2407.6l-.9,2.44h1.77l-.86-2.44Z"/>
      <path class="cls-2" d="M1187.26,2408.26c-.06-.68-.48-1.02-1.26-1.02-.35,0-.62.07-.81.22-.2.14-.29.34-.29.59,0,.23.07.39.22.48.14.09.46.19.96.32.13.04.23.07.3.08.65.16,1.09.31,1.32.44.52.28.77.71.77,1.29,0,.25-.04.49-.13.69s-.2.38-.35.52c-.15.14-.32.25-.52.35-.2.09-.41.16-.63.2-.22.04-.44.06-.68.06-.73,0-1.32-.17-1.77-.52-.45-.35-.68-.86-.68-1.53h1c0,.42.14.74.41.94.28.2.64.3,1.08.3.39,0,.7-.08.91-.24.22-.16.33-.38.33-.67,0-.18-.06-.34-.17-.45-.12-.12-.24-.2-.38-.25s-.37-.12-.71-.2c-.04-.01-.07-.02-.09-.02-.72-.18-1.2-.34-1.42-.46-.47-.24-.72-.62-.76-1.13v-.11c0-.52.19-.93.58-1.23.39-.31.91-.46,1.56-.46s1.14.15,1.54.45.6.76.63,1.37h-.97Z"/>
      <path class="cls-2" d="M1193.29,2412.35h-3.97v-5.79h1.03v4.91h2.95v.88Z"/>
      <path class="cls-2" d="M1198.16,2407.41h-3.17v1.54h2.94v.82h-2.94v1.71h3.21v.87h-4.22v-5.79h4.17v.85Z"/>
    </g>
  </g>
  <g>
    <g>
      <path class="cls-2" d="M5743.61,3038.06h-20.52l-10.42-28.95h-43.19l-10.72,28.95h-19.75l42.12-109.2h20.37l42.12,109.2ZM5691.39,2948.78l-17,45.94h33.24l-16.23-45.94Z"/>
      <path class="cls-2" d="M5814.01,2961.18c-1.13-12.76-9.04-19.14-23.74-19.14-6.53,0-11.64,1.36-15.32,4.07-3.67,2.7-5.51,6.41-5.51,11.09,0,4.4,1.35,7.41,4.06,9.04,2.71,1.63,8.7,3.62,18,5.97,2.45.72,4.33,1.23,5.66,1.54,12.15,3.05,20.42,5.82,24.81,8.26,9.7,5.21,14.55,13.33,14.55,24.35,0,4.79-.82,9.14-2.45,13.02-1.63,3.88-3.83,7.12-6.59,9.73-2.75,2.61-6.02,4.77-9.8,6.5-3.77,1.74-7.71,2.99-11.79,3.76-4.08.77-8.32,1.15-12.71,1.15-13.68,0-24.76-3.27-33.23-9.8-8.47-6.53-12.71-16.13-12.71-28.8h18.84c0,7.97,2.6,13.86,7.81,17.69,5.21,3.82,12,5.73,20.37,5.73,7.35,0,13.1-1.51,17.23-4.52,4.14-3.01,6.2-7.22,6.2-12.63,0-3.47-1.09-6.31-3.29-8.5-2.19-2.2-4.56-3.76-7.12-4.68-2.55-.92-6.99-2.19-13.32-3.82-.72-.2-1.28-.36-1.69-.46-13.58-3.47-22.51-6.33-26.8-8.57-8.88-4.6-13.63-11.69-14.24-21.29v-2.15c0-9.69,3.65-17.44,10.95-23.2,7.3-5.77,17.08-8.66,29.33-8.66s21.49,2.81,28.95,8.42c7.45,5.62,11.38,14.24,11.79,25.88h-18.23Z"/>
      <path class="cls-2" d="M5927.58,3038.06h-74.73v-109.05h19.3v92.51h55.44v16.54Z"/>
      <path class="cls-2" d="M6019.27,2945.1h-59.57v28.95h55.29v15.47h-55.29v32.16h60.49v16.39h-79.48v-109.05h78.56v16.08Z"/>
    </g>
    <g>
      <path class="cls-2" d="M6900.69,3038.06h-20.52l-10.41-28.95h-43.19l-10.72,28.95h-19.75l42.11-109.2h20.37l42.11,109.2ZM6848.47,2948.78l-17,45.94h33.24l-16.24-45.94Z"/>
      <path class="cls-2" d="M6971.08,2961.18c-1.12-12.76-9.03-19.14-23.74-19.14-6.53,0-11.64,1.36-15.32,4.07-3.67,2.7-5.51,6.41-5.51,11.09,0,4.4,1.36,7.41,4.06,9.04,2.71,1.63,8.7,3.62,18,5.97,2.45.72,4.33,1.23,5.66,1.54,12.15,3.05,20.43,5.82,24.81,8.26,9.69,5.21,14.55,13.33,14.55,24.35,0,4.79-.82,9.14-2.46,13.02-1.63,3.88-3.82,7.12-6.59,9.73-2.75,2.61-6.02,4.77-9.8,6.5-3.77,1.74-7.71,2.99-11.79,3.76-4.09.77-8.32,1.15-12.72,1.15-13.68,0-24.76-3.27-33.23-9.8-8.48-6.53-12.72-16.13-12.72-28.8h18.85c0,7.97,2.59,13.86,7.81,17.69,5.21,3.82,12,5.73,20.37,5.73,7.35,0,13.09-1.51,17.22-4.52,4.14-3.01,6.2-7.22,6.2-12.63,0-3.47-1.09-6.31-3.29-8.5-2.2-2.2-4.57-3.76-7.12-4.68-2.55-.92-6.99-2.19-13.33-3.82-.72-.2-1.27-.36-1.69-.46-13.57-3.47-22.51-6.33-26.8-8.57-8.88-4.6-13.62-11.69-14.24-21.29v-2.15c0-9.69,3.65-17.44,10.95-23.2,7.29-5.77,17.07-8.66,29.33-8.66s21.49,2.81,28.95,8.42c7.45,5.62,11.38,14.24,11.79,25.88h-18.23Z"/>
      <path class="cls-2" d="M7084.67,3038.06h-74.74v-109.05h19.3v92.51h55.44v16.54Z"/>
      <path class="cls-2" d="M7176.35,2945.1h-59.58v28.95h55.3v15.47h-55.3v32.16h60.5v16.39h-79.48v-109.05h78.56v16.08Z"/>
    </g>
  </g>
  <g>
    <path class="cls-2" d="M4072.16,3350.01h-137.69l-69.85-194.21h-289.77l-71.92,194.21h-132.53l282.54-732.63h136.68l282.54,732.63ZM3721.78,2750.98l-114.05,308.25h223.01l-108.96-308.25Z"/>
    <path class="cls-2" d="M4892.09,3350.01h-137.69l-69.85-194.21h-289.77l-71.92,194.21h-132.53l282.54-732.63h136.68l282.54,732.63ZM4541.72,2750.98l-114.05,308.25h223.01l-108.96-308.25Z"/>
  </g>
</svg>