<?xml version="1.0" encoding="UTF-8"?>
<svg id="l-header__logo" xmlns="http://www.w3.org/2000/svg" viewBox="0 0 3068.26 230.68">
  <defs>
    <style>
      .cls-1 {
        fill: #445fac;
        stroke-width: 0px;
      }
    </style>
  </defs>
  <g>
    <path class="cls-1" d="M210.42,223.64h-40.88l-20.75-57.66H62.76l-21.35,57.66H2.06L85.95,6.13h40.57l83.89,217.51ZM106.39,45.79l-33.87,91.52h66.21l-32.34-91.52Z"/>
    <path class="cls-1" d="M350.64,70.49c-2.24-25.42-18-38.13-47.29-38.13-13.02,0-23.18,2.7-30.51,8.1-7.32,5.38-10.97,12.76-10.97,22.1,0,8.76,2.69,14.76,8.08,18.01,5.39,3.25,17.33,7.21,35.85,11.89,4.88,1.42,8.63,2.45,11.28,3.06,24.2,6.08,40.68,11.59,49.42,16.46,19.32,10.38,28.99,26.54,28.99,48.51,0,9.55-1.63,18.21-4.88,25.93-3.25,7.72-7.62,14.19-13.12,19.38-5.49,5.19-12,9.51-19.52,12.95-7.52,3.47-15.36,5.96-23.49,7.49-8.14,1.53-16.57,2.3-25.32,2.3-27.26,0-49.32-6.51-66.2-19.52-16.88-13.02-25.32-32.14-25.32-57.36h37.53c0,15.87,5.18,27.61,15.56,35.24,10.37,7.61,23.9,11.42,40.57,11.42,14.64,0,26.09-3,34.32-9,8.24-6,12.36-14.38,12.36-25.16,0-6.91-2.18-12.57-6.56-16.93-4.37-4.38-9.09-7.49-14.19-9.32-5.08-1.83-13.93-4.36-26.53-7.61-1.42-.4-2.54-.72-3.36-.91-27.04-6.91-44.84-12.61-53.38-17.08-17.7-9.17-27.15-23.29-28.37-42.41v-4.27c0-19.31,7.27-34.73,21.81-46.22,14.54-11.48,34.02-17.25,58.42-17.25s42.81,5.59,57.66,16.78c14.85,11.19,22.67,28.37,23.49,51.55h-36.31Z"/>
    <path class="cls-1" d="M576.88,223.64h-148.87V6.43h38.44v184.27h110.43v32.94Z"/>
    <path class="cls-1" d="M759.51,38.46h-118.67v57.66h110.14v30.82h-110.14v64.06h120.5v32.65h-158.32V6.43h156.49v32.03Z"/>
  </g>
  <g>
    <path class="cls-1" d="M2515.26,223.64h-40.88l-20.74-57.66h-86.03l-21.35,57.66h-39.35l83.88-217.51h40.58l83.88,217.51ZM2411.24,45.79l-33.86,91.52h66.21l-32.35-91.52Z"/>
    <path class="cls-1" d="M2655.48,70.49c-2.23-25.42-17.99-38.13-47.28-38.13-13.02,0-23.18,2.7-30.52,8.1-7.32,5.38-10.97,12.76-10.97,22.1,0,8.76,2.7,14.76,8.08,18.01,5.4,3.25,17.33,7.21,35.86,11.89,4.87,1.42,8.63,2.45,11.27,3.06,24.2,6.08,40.69,11.59,49.43,16.46,19.31,10.38,28.99,26.54,28.99,48.51,0,9.55-1.64,18.21-4.89,25.93-3.25,7.72-7.61,14.19-13.12,19.38-5.49,5.19-12,9.51-19.52,12.95-7.51,3.47-15.36,5.96-23.48,7.49-8.15,1.53-16.57,2.3-25.33,2.3-27.24,0-49.32-6.51-66.19-19.52-16.89-13.02-25.33-32.14-25.33-57.36h37.54c0,15.87,5.17,27.61,15.55,35.24,10.38,7.61,23.91,11.42,40.58,11.42,14.63,0,26.08-3,34.31-9,8.25-6,12.36-14.38,12.36-25.16,0-6.91-2.17-12.57-6.55-16.93-4.38-4.38-9.1-7.49-14.19-9.32-5.08-1.83-13.93-4.36-26.54-7.61-1.42-.4-2.53-.72-3.36-.91-27.03-6.91-44.83-12.61-53.38-17.08-17.7-9.17-27.14-23.29-28.37-42.41v-4.27c0-19.31,7.27-34.73,21.82-46.22,14.53-11.48,34.01-17.25,58.42-17.25s42.81,5.59,57.66,16.78c14.85,11.19,22.67,28.37,23.48,51.55h-36.31Z"/>
    <path class="cls-1" d="M2881.74,223.64h-148.88V6.43h38.45v184.27h110.43v32.94Z"/>
    <path class="cls-1" d="M3064.37,38.46h-118.68v57.66h110.15v30.82h-110.15v64.06h120.51v32.65h-158.32V6.43h156.49v32.03Z"/>
  </g>
</svg>