<?xml version="1.0" encoding="UTF-8"?>
<svg id="l-header__logo" xmlns="http://www.w3.org/2000/svg" version="1.1" viewBox="0 0 280 72.4">
  <defs>
    <style>
      .cls-1 {
        fill: #722128;
      }

      .cls-1, .cls-2 {
        stroke-width: 0px;
      }

      .cls-2 {
        fill: #fff;
      }
    </style>
  </defs>
  <g>
    <path class="cls-1" d="M252.5,33.5c.7-.9,1.2-1.5,1.7-2.2.8-1.2,1.7-2.3,2.4-3.6.8-1.7.5-3.5-.9-4.5-.7-.5-2.4,0-3.5.4-1,.4-1.8,1.1-2.7,1.8-3,2.6-5.9,5.1-8.9,7.7,2.3-3.5,4.9-6.8,7.7-10,2.1-2.4,4.5-4.6,6.8-6.9,1.1-1.1,1.3-2.6.2-3.6-.3-.3-1.9.4-2.6.9-2.2,1.5-4.4,3.2-6.6,4.8,0,0-.1.2-.2.3.6,0,1.1.2,1.4.2-3.4,4.5-6.9,9-10.3,13.5-.3.4-.7.7-1.2.9-2.3.9-4.6,1.8-7.3,2.8,2.1-2.9,4-5.6,6-8.3,1-1.3,1.1-2.5-.3-3.5-1.5-1.1-2,.3-2.7,1.2-4.1,4.5-8.2,9-12.3,13.5-.7.7-1.6,1.1-2.4,1.7,0-1.2.3-2.1.8-2.9,1.7-2.6,3.5-5.1,5.3-7.6.6-.9,1.5-1.7,1.7-2.7.2-.8-.4-1.8-.6-2.7-.8.3-1.8.3-2.3.9-1.8,1.9-3.5,3.9-5.2,5.9.3,0,.7,0,1.1.2-2,4.3-6.7,3.4-9.8,5.7,2.1-3.5,4.3-6.9,6.8-10,2.6-3.2,5.6-6.2,8.4-9.3,1-1.1,1.2-2.4.1-3.5-1.2-1.2-2,.2-2.8.8-2,1.5-4,3-5.9,4.5,0,0,0,.2-.1.5.6,0,1.2.2,2,.3-.5.5-.7.9-1,1.2-5.4,5.8-10.2,12.1-13.6,19.3-.4.8-1,1.8-.8,2.6.2,1,1.1,1.8,1.7,2.7.7-.4,1.5-.7,1.9-1.3,1-1.1,1.7-2.5,2.7-3.7,1.8-2.3,4-4,7.2-5.3-.4.9-.6,1.3-.8,1.7-.6,1.3-1.6,2.6-1.7,3.9,0,1.3.8,2.7,1.6,3.9.2.2,2-.4,2.8-1,1.3-1,2.4-2.3,3.5-3.5,1.5-1.5,3-3.1,4.4-4.6-.6,2.1-1.6,3.8-2,5.7-.2.9.9,2,1.4,3,.8-.5,1.7-.8,2.2-1.4,1.3-1.6,2.3-3.5,3.7-5,1.6-1.5,3.5-2.7,5.3-4,.1.2.3.4.4.5-.5,1-1.1,2-1.4,3.1-.7,2,0,4.3,1.7,5.7,1.6,1.3,3,.4,4.4-.4,2-1.2,3.9-2.4,5.8-3.8,3.7-2.8,7.8-4.9,12.2-6.2,1-.3,2-.7,3-1.1v-.9c-2.7.6-5.3,1.1-8.2,1.7ZM237.8,40.7c.3-3.8,9.3-11.4,14.2-12-3.8,4.9-7.9,9.5-14.2,12Z"/>
    <path class="cls-1" d="M113.8,40.8c3-2.8,6-5.7,9-8.5.7-.6,1.4-1.2,2.1-1.8,2.3-1.8,3-1.7,4.4.9,4-.1,6.4-2.1,8.3-5.6,1.3-2.3,4.3-2.8,6.8-3.6l.5.6c-1.7,1.9-3.3,3.9-5.3,6.1,1.8-.2,3.2-.4,4.9-.6-.2,2-1.4,2.8-2.8,2.7-4.2-.2-6.3,2.4-8.2,5.5-1,1.6-2,3.3-3.2,5.1,3.3-1.3,6.3-2.5,8.5-3.4,1.1-1.7,1.6-3.2,2.6-4.1,3.6-3.1,7.9-5,12.5-6.1.7-.2,2.1.3,2.4.9.8,1.3-.5,1.8-1.5,2.3-1.4.7-2.7,1.5-4.1,2.3-1-1.2-4.9.5-6.6,3.4,5.1,1.6,10.1,2,15.3-.3,0,.3,0,.6,0,1-.3.2-.5.6-.9.7-7.8,2.4-14.6,6.8-21.2,11.4-.9.6-1.8,1.8-2.8.2-.9-1.4-.5-2.5.8-3.3,3.6-2.2,7.3-4.3,11-6.4.4-.2.7-.4,1.2-.7-7-1.5-14.3,1.5-18.3,7-.7.9-1.2,2-2,2.8-.5.5-1.7,1.3-1.9,1.1-.7-.6-1.5-1.5-1.6-2.3,0-1,.3-2.1.8-3,2-3.6,4.2-7,6.3-10.5.3-.5.7-1.1,1.1-1.7-4.1,0-7.6,3.6-8.3,8.2-2.6-.5-3.2-1.3-2.5-4.6-2.3,2-4.4,3.4-6,5.2-2.3,2.6-4.1,5.5-6.3,8.2-.6.7-1.8,1.6-2.3,1.4-1.4-.6-1.9-2-1.1-3.4,1-2,2.1-3.9,3.1-5.9-.1-.2-.2-.4-.3-.5-2.3,1.2-4.7,2.3-6.8,3.8-2.5,1.7-4.7,3.8-7,5.7-1.1.9-2.2,2.2-3.8,1.1-1.7-1.2-2.7-2.9-2.3-5,.3-1.4.9-2.7,1.1-4.5-2.7,1.4-5.5,2.6-8.1,4.1-3.4,2-6.6,4.3-10,6.3-1.6.9-3.3,1.1-4.5-1-2.5,3.6-4.9,7.2-7.3,10.7-.9,1.4-1.9,2.7-3,3.9-.4.5-1.7,1-1.9.8-.6-.6-1.3-1.5-1.2-2.3,0-1.1.6-2.2,1.2-3.2.9-1.4,1.8-2.8,3-4,5.6-5.4,8.8-12.4,13.2-18.6,0,0,0-.3,0-.5-.8,0-1.6.1-2.2.1,2.1-1.9,4.3-4,6.6-5.9.5-.4,1.7-.8,2-.6.5.5,1,1.6.8,2.2-.4,1.1-1.1,2.1-1.9,3.1-1.1,1.5-2.3,2.9-3.2,4.6,2.1-2,4.2-4,6.4-5.8,2-1.6,4.1-3.2,6.3-4.5,2.2-1.3,4.1-.3,3.8,2.2-.2,1.9-1.4,3.8-2.3,5.6-.4.9-1.2,1.6-1.7,2.5,2.8-1,5.8-1.2,8.1-3.9,2.3-2.8,5.4-4.9,8.3-7.1,1.4-1.1,3.1-1.4,4.6-.1,1.5,1.3,1.2,2.9.5,4.4-.9,1.9-1.9,3.8-3.1,6.2,2.9-1.7,6.8-1,8.1-5.1-.7,0-1.3.1-1.9.1,2.1-2.2,4.1-4.5,6.3-6.6.3-.3,1.7,0,2,.5.9,1.3.4,2.6-.5,3.7-1.6,2-3.1,4-4.6,6,.1,0,.3.2.4.3ZM92.5,47.4c.2.2.3.3.5.5.8-.3,1.6-.4,2.3-.8,4-2.5,7.1-5.9,9.2-10,.3-.6.2-1.3.3-2-.7.1-1.6,0-2.2.3-4,2.5-7.3,5.8-9.5,10.1-.3.6-.4,1.3-.6,2ZM84.5,37.5c-4.5.3-13.3,7.7-14,11.8,6.4-2.2,10.3-6.8,14-11.8Z"/>
    <path class="cls-1" d="M59,24.7c.7-.7,1.4-1.3,2.1-2-6.7.9-12.9,2.9-18.5,6.5-.5.3-1.1,1.2-1,1.6.1.5,1,1,1.6,1.1,4.3.7,8.5,1.4,12.8,2,3.3.5,5.7,1.9,6.3,5.5.1.5.9,1,1.4,1.4.9.8,1.9,1.5,2.9,2.2-.1.2-.2.3-.4.5-1.2-.5-2.4-1.1-3.7-1.7-3,7.5-9.4,10.9-16.1,13.7-6.3,2.6-12.9,4.7-19.8,4.8-3.8,0-6.2-2.1-7.1-6.2-.9-4.1,0-6,3.9-7.7,10.2-4.4,20.9-6.9,32-7.1,1.2,0,2.4.1,3.9.2.1-1.8-.9-2.8-2.4-2.9-3.7-.2-7.3-.2-11-.3-1.3,0-2.6.2-3.9.2-3.2,0-4.5-.9-5.5-4.1-.9-2.8-.5-4.2,2.3-6,8.2-5,17.2-7.7,26.6-8.8.9-.1,2.6.8,2.7,1.4.2,1.1-.3,2.9-1.1,3.3-2.5,1.2-5.2,2-7.9,2.9,0-.2-.2-.4-.2-.6ZM58.5,41.7l-.4-.7c-.7,0-1.4-.2-2.1-.1-4.6.7-9.3,1.1-13.8,2.2-6.4,1.6-12.7,3.7-18.1,7.8-1.2.9-2.7,2.8-2.4,3.8.4,1.8,2.7,1.5,4.3,1.3,10-.9,19.2-4,27.5-9.7,1.8-1.3,3.3-3.1,5-4.6Z"/>
    <path class="cls-1" d="M210.4,17.3c-.8,1-1.7,1.7-2,2.6-1,3.1-3,4.7-6.3,4.9-.8,0-1.7.3-3.2.5,1-1.5,1.6-2.8,2.5-3.8.8-.9,1.8-1.6,2.8-2.3,1.5-1.2,2.5-2.8,1.8-4.7-.7-1.9-2.6-1.5-4.1-1.1-9.2,2.1-16.3,7.6-21.9,14.8-2.5,3.3-4.1,7.3-6,11.1-.4.8-.5,1.8-.5,2.7-.1,3,1.5,5,4.5,4.7,2.5-.3,5.2-.8,7.4-2.1,4.6-2.8,8.9-6.1,13.2-9.2.8-.6,1.5-1.3,2.7-1.8-.2.6-.2,1.3-.5,1.9-3.9,7.1-9.6,12.2-17.6,14.2-7.2,1.8-13.5-3.7-12.9-11.2.2-2.6,1-5.3,2.3-7.5,5.6-10.3,14-17.2,25.4-20.1,1.2-.3,2.4-.4,3.6-.4,4.2,0,6.7,2.3,7.3,6.5.5,0,1,.1,1.4.2Z"/>
  </g>
  <g>
    <g>
      <path class="cls-2" d="M42.9,21.3h-3l-1.5-4.2h-6.3l-1.6,4.2h-2.9l6.2-16h3l6.2,16ZM35.3,8.2l-2.5,6.7h4.9l-2.4-6.7Z"/>
      <path class="cls-2" d="M53.2,10c-.2-1.9-1.3-2.8-3.5-2.8s-1.7.2-2.2.6c-.5.4-.8.9-.8,1.6s.2,1.1.6,1.3,1.3.5,2.6.9c.4.1.6.2.8.2,1.8.4,3,.9,3.6,1.2,1.4.8,2.1,1.9,2.1,3.6s-.1,1.3-.4,1.9-.6,1-1,1.4c-.4.4-.9.7-1.4.9-.6.3-1.1.4-1.7.5s-1.2.2-1.9.2c-2,0-3.6-.5-4.9-1.4s-1.9-2.4-1.9-4.2h2.8c0,1.2.4,2,1.1,2.6.8.6,1.8.8,3,.8s1.9-.2,2.5-.7c.6-.4.9-1.1.9-1.8s-.2-.9-.5-1.2c-.3-.3-.7-.5-1-.7-.4-.1-1-.3-1.9-.6-.1,0-.2,0-.2,0-2-.5-3.3-.9-3.9-1.3-1.3-.7-2-1.7-2.1-3.1v-.3c0-1.4.5-2.5,1.6-3.4s2.5-1.3,4.3-1.3,3.1.4,4.2,1.2,1.7,2.1,1.7,3.8h-2.7Z"/>
      <path class="cls-2" d="M69.8,21.3h-10.9V5.3h2.8v13.5h8.1v2.4Z"/>
      <path class="cls-2" d="M83.2,7.7h-8.7v4.2h8.1v2.3h-8.1v4.7h8.8v2.4h-11.6V5.3h11.5v2.3Z"/>
    </g>
    <g>
      <path class="cls-2" d="M212,21.3h-3l-1.5-4.2h-6.3l-1.6,4.2h-2.9l6.2-16h3l6.2,16ZM204.3,8.2l-2.5,6.7h4.9l-2.4-6.7Z"/>
      <path class="cls-2" d="M222.2,10c-.2-1.9-1.3-2.8-3.5-2.8s-1.7.2-2.2.6c-.5.4-.8.9-.8,1.6s.2,1.1.6,1.3c.4.2,1.3.5,2.6.9.4.1.6.2.8.2,1.8.4,3,.9,3.6,1.2,1.4.8,2.1,1.9,2.1,3.6s-.1,1.3-.4,1.9-.6,1-1,1.4c-.4.4-.9.7-1.4.9-.6.3-1.1.4-1.7.5-.6.1-1.2.2-1.9.2-2,0-3.6-.5-4.9-1.4-1.2-1-1.9-2.4-1.9-4.2h2.8c0,1.2.4,2,1.1,2.6.8.6,1.8.8,3,.8s1.9-.2,2.5-.7c.6-.4.9-1.1.9-1.8s-.2-.9-.5-1.2c-.3-.3-.7-.5-1-.7s-1-.3-1.9-.6c-.1,0-.2,0-.2,0-2-.5-3.3-.9-3.9-1.3-1.3-.7-2-1.7-2.1-3.1v-.3c0-1.4.5-2.5,1.6-3.4,1.1-.8,2.5-1.3,4.3-1.3s3.1.4,4.2,1.2,1.7,2.1,1.7,3.8h-2.7Z"/>
      <path class="cls-2" d="M238.8,21.3h-10.9V5.3h2.8v13.5h8.1v2.4Z"/>
      <path class="cls-2" d="M252.2,7.7h-8.7v4.2h8.1v2.3h-8.1v4.7h8.8v2.4h-11.6V5.3h11.5v2.3Z"/>
    </g>
  </g>
</svg>