<?xml version="1.0" standalone="no"?>
<!DOCTYPE svg PUBLIC "-//W3C//DTD SVG 20010904//EN"
 "http://www.w3.org/TR/2001/REC-SVG-20010904/DTD/svg10.dtd">
<svg version="1.0" xmlns="http://www.w3.org/2000/svg"
 width="700.000000pt" height="700.000000pt" viewBox="0 0 700.000000 700.000000"
 preserveAspectRatio="xMidYMid meet">
<metadata>
Created by potrace 1.14, written by Peter Selinger 2001-2017
</metadata>
<g transform="translate(0.000000,700.000000) scale(0.100000,-0.100000)"
fill="#000000" stroke="none">
<path d="M1680 4572 c-79 -207 -147 -384 -151 -392 -4 -8 -30 -73 -57 -145
-175 -457 -374 -973 -382 -990 -5 -11 -29 -74 -54 -140 -79 -212 -167 -439
-183 -473 -8 -19 -12 -36 -8 -40 11 -11 446 -8 455 3 5 6 27 60 49 121 116
317 192 521 200 534 7 13 74 15 506 15 399 0 501 -2 511 -13 8 -7 20 -34 28
-60 8 -26 22 -65 30 -87 33 -90 178 -491 183 -505 4 -14 36 -16 238 -15 129 1
237 3 240 6 2 3 -22 75 -56 160 -33 85 -64 168 -70 184 -5 17 -13 39 -18 50
-6 11 -37 90 -70 175 -127 331 -168 438 -308 800 -79 206 -155 402 -168 435
-12 33 -41 107 -63 165 -169 436 -201 519 -211 553 l-13 37 -241 0 -242 0
-145 -378z m413 -162 c19 -53 113 -321 192 -545 31 -88 79 -223 106 -300 28
-77 51 -144 52 -150 1 -6 -133 -10 -385 -10 -214 -1 -388 0 -388 2 0 2 30 83
66 180 36 98 84 228 106 288 22 61 55 148 73 195 18 47 58 156 90 243 32 87
61 155 65 150 4 -4 14 -28 23 -53z"/>
<path d="M4575 4639 c-66 -172 -130 -337 -141 -368 -23 -59 -176 -457 -252
-651 -24 -63 -51 -133 -59 -155 -7 -22 -18 -49 -23 -60 -5 -11 -37 -92 -70
-180 -64 -166 -176 -458 -260 -675 -27 -69 -51 -134 -54 -145 -6 -20 -1 -20
224 -20 l230 0 9 25 c5 14 21 54 34 90 14 36 53 142 87 235 95 258 110 299
119 315 7 13 75 15 512 15 l504 0 38 -105 c21 -58 47 -127 57 -155 11 -27 47
-129 81 -225 34 -96 66 -179 71 -185 9 -10 453 -14 469 -4 9 5 -2 40 -37 116
-8 17 -14 34 -14 37 0 3 -15 45 -34 94 -19 48 -84 218 -146 377 -114 297 -155
403 -233 605 -25 63 -81 210 -125 325 -45 116 -145 374 -223 575 -77 201 -145
380 -150 398 l-10 32 -242 0 -242 0 -120 -311z m405 -279 c23 -63 58 -164 80
-225 21 -60 61 -175 90 -255 28 -80 60 -170 70 -200 10 -30 36 -105 58 -165
l40 -110 -389 -1 c-306 0 -389 2 -389 12 0 7 4 15 9 18 5 3 12 18 16 33 3 16
53 154 110 308 57 154 139 375 182 492 43 116 79 210 80 209 1 -1 21 -53 43
-116z"/>
</g>
</svg>
