<?xml version="1.0" standalone="no"?>
<!DOCTYPE svg PUBLIC "-//W3C//DTD SVG 20010904//EN"
 "http://www.w3.org/TR/2001/REC-SVG-20010904/DTD/svg10.dtd">
<svg version="1.0" xmlns="http://www.w3.org/2000/svg"
 width="700.000000pt" height="700.000000pt" viewBox="0 0 700.000000 700.000000"
 preserveAspectRatio="xMidYMid meet">
<metadata>
Created by potrace 1.14, written by Peter Selinger 2001-2017
</metadata>
<g transform="translate(0.000000,700.000000) scale(0.100000,-0.100000)"
fill="#000000" stroke="none">
<path d="M1854 4782 c-30 -3 -34 -8 -62 -85 -35 -94 -34 -92 -171 -447 -56
-146 -106 -274 -111 -285 -8 -18 -123 -317 -206 -535 -40 -106 -414 -1076
-443 -1149 -12 -29 -20 -56 -17 -58 3 -3 336 -6 429 -4 31 1 27 -7 96 181 27
74 79 216 116 316 l67 181 508 0 507 0 23 -66 c66 -188 219 -603 223 -608 7
-6 466 -7 472 -1 3 3 -13 51 -35 109 -22 57 -54 140 -71 184 -17 44 -34 89
-39 100 -5 11 -54 139 -110 285 -104 271 -203 528 -245 635 -13 33 -76 197
-140 365 -64 168 -120 314 -125 325 -5 11 -44 110 -86 220 -42 110 -86 223
-96 250 -11 28 -22 58 -25 68 -3 9 -13 17 -22 18 -62 2 -412 3 -437 1z m285
-673 c123 -346 232 -654 235 -664 2 -5 6 -17 9 -25 10 -26 59 -169 61 -177 0
-4 -173 -8 -386 -8 -384 0 -388 0 -382 20 9 28 243 665 254 690 5 11 37 97 72
192 35 94 64 170 65 169 2 -1 34 -90 72 -197z"/>
<path d="M4730 4782 l-36 -3 -113 -297 c-63 -163 -120 -310 -127 -327 -11 -25
-238 -614 -299 -775 -9 -25 -21 -54 -25 -65 -5 -11 -20 -49 -33 -85 -14 -36
-48 -123 -75 -195 -67 -172 -265 -686 -291 -754 -11 -30 -19 -57 -16 -59 8 -9
447 -4 455 4 5 5 20 41 33 79 52 147 211 570 219 581 5 7 161 11 512 11 l504
0 30 -86 c17 -47 49 -138 72 -201 23 -63 62 -173 87 -245 25 -71 49 -134 53
-139 9 -9 467 -12 476 -4 2 3 -20 68 -50 144 -30 76 -107 276 -171 444 -194
505 -205 534 -215 555 -10 22 -300 777 -335 870 -25 68 -167 437 -193 502 -15
39 -20 43 -52 44 -150 3 -381 3 -410 1z m263 -627 c25 -71 69 -195 97 -275 75
-210 167 -473 199 -565 l28 -80 -389 0 c-341 0 -389 2 -385 15 2 8 48 132 101
275 101 270 136 365 213 575 25 69 52 139 59 157 8 17 14 37 14 45 1 24 16
-12 63 -147z"/>
</g>
</svg>
