<?xml version="1.0" standalone="no"?>
<!DOCTYPE svg PUBLIC "-//W3C//DTD SVG 20010904//EN"
 "http://www.w3.org/TR/2001/REC-SVG-20010904/DTD/svg10.dtd">
<svg version="1.0" xmlns="http://www.w3.org/2000/svg"
 width="700.000000pt" height="700.000000pt" viewBox="0 0 700.000000 700.000000"
 preserveAspectRatio="xMidYMid meet">
<metadata>
Created by potrace 1.14, written by Peter Selinger 2001-2017
</metadata>
<g transform="translate(0.000000,700.000000) scale(0.100000,-0.100000)"
fill="#000000" stroke="none">
<path d="M1854 4782 c-30 -3 -34 -8 -62 -85 -35 -94 -34 -92 -171 -447 -56
-146 -106 -274 -111 -285 -8 -19 -92 -236 -190 -495 -53 -140 -426 -1105 -459
-1189 -12 -29 -20 -56 -17 -58 3 -3 336 -6 429 -4 31 1 27 -7 96 181 27 74 79
216 116 316 l67 181 507 0 508 0 32 -91 c18 -50 41 -113 51 -141 11 -27 50
-137 88 -243 39 -106 72 -196 76 -199 6 -6 465 -7 471 -1 3 3 -13 51 -35 109
-22 57 -54 140 -71 184 -17 44 -34 89 -39 100 -5 11 -77 198 -160 415 -83 217
-167 433 -185 480 -18 47 -124 321 -236 610 -111 289 -211 548 -221 575 -11
28 -22 58 -25 68 -3 9 -13 17 -22 18 -62 2 -412 3 -437 1z m285 -673 c123
-346 232 -654 235 -664 2 -5 6 -17 9 -25 10 -26 59 -169 61 -177 1 -8 -738
-13 -761 -5 -8 2 -6 18 7 55 25 74 230 628 240 652 5 11 37 97 72 192 35 94
64 170 65 169 2 -1 34 -90 72 -197z"/>
<path d="M4730 4782 l-36 -3 -113 -297 c-63 -163 -120 -310 -127 -327 -12 -28
-178 -458 -274 -710 -23 -60 -45 -119 -50 -130 -5 -11 -20 -49 -33 -85 -14
-36 -48 -123 -75 -195 -67 -172 -265 -686 -291 -754 -11 -30 -19 -57 -16 -59
8 -9 447 -4 454 4 5 5 20 41 34 79 84 232 212 572 219 581 5 7 161 11 512 11
l504 0 30 -86 c17 -47 49 -138 72 -201 23 -63 62 -173 87 -245 25 -71 49 -134
53 -139 8 -8 467 -13 476 -4 2 3 -25 81 -61 174 -36 93 -79 203 -94 244 -16
41 -83 215 -149 385 -285 736 -446 1154 -467 1210 -25 67 -167 436 -193 502
-15 39 -20 43 -52 44 -150 3 -381 3 -410 1z m251 -593 c22 -63 49 -139 60
-169 11 -30 27 -75 35 -100 19 -53 116 -328 186 -525 27 -76 50 -144 51 -149
1 -6 -139 -10 -385 -11 -384 0 -388 0 -382 20 4 11 49 135 101 275 104 280
141 382 210 570 25 69 52 139 59 157 8 17 14 37 14 44 0 25 11 0 51 -112z"/>
</g>
</svg>
