<?xml version="1.0" standalone="no"?>
<!DOCTYPE svg PUBLIC "-//W3C//DTD SVG 20010904//EN"
 "http://www.w3.org/TR/2001/REC-SVG-20010904/DTD/svg10.dtd">
<svg version="1.0" xmlns="http://www.w3.org/2000/svg"
 width="700.000000pt" height="700.000000pt" viewBox="0 0 700.000000 700.000000"
 preserveAspectRatio="xMidYMid meet">
<metadata>
Created by potrace 1.14, written by Peter Selinger 2001-2017
</metadata>
<g transform="translate(0.000000,700.000000) scale(0.100000,-0.100000)"
fill="#000000" stroke="none">
<path d="M0 3500 l0 -3500 3500 0 3500 0 0 3500 0 3500 -3500 0 -3500 0 0
-3500z m2792 18 c268 -695 490 -1271 493 -1280 7 -17 -8 -18 -233 -18 l-240 0
-14 38 c-9 20 -64 173 -124 340 l-108 302 -506 0 -507 0 -124 -337 -125 -338
-233 -3 c-147 -1 -232 1 -229 7 1 6 224 582 493 1281 l490 1270 240 0 240 0
487 -1262z m2873 -9 c270 -698 492 -1274 493 -1280 3 -6 -85 -8 -238 -7 l-242
3 -121 338 -121 337 -507 0 -506 0 -125 -337 -125 -338 -232 -3 c-220 -2 -233
-1 -227 15 4 10 226 586 494 1281 l487 1262 240 0 240 0 490 -1271z"/>
<path d="M1868 3777 l-196 -532 380 -3 c210 -1 383 0 386 3 4 4 -350 1020
-367 1052 -3 7 -95 -227 -203 -520z"/>
<path d="M4738 3777 l-196 -532 380 -3 c210 -1 383 0 386 3 4 4 -350 1020
-367 1052 -3 7 -95 -227 -203 -520z"/>
</g>
</svg>
