<?xml version="1.0" encoding="UTF-8"?>
<svg id="l-header__logo" xmlns="http://www.w3.org/2000/svg" version="1.1" viewBox="0 0 443 230">
  <defs>
    <style>
      .cls-1 {
        fill: #000;
        stroke-width: 0px;
      }
    </style>
  </defs>
  <polygon class="cls-1" points="174.8 123 174.8 123 174.8 123 174.8 123"/>
  <path class="cls-1" d="M110.9,43.1v128.3h221.2V43.1H110.9ZM278.7,72.5c.9.4,1.7.7,2.1.9-.6.6-1.5,1.4-2.3,2.2,1,.8,2,1.5,2.6,2-.2,0-1.1.2-2.2.5.5,3,.9,5.8,1.4,8.9-1.6,1-1.8,2.5-1.3,4.7.3,1.2-1.4,2.9-2.5,4.4,1.4-2.6.7-5.1,0-7.7-.9-3.8.3-11.4,2.3-15.9ZM163.8,103.3c-1,.8-2,1.7-3.1,2.6-3.2-.7-3.6-1.6-1.8-4.7.8-1.2,1.7-.8,2.6-.2-.2.2-.4.5-.6.7q.7,2,2.9,1.7ZM161.9,107.5c-.5.2-1,.4-1.5.6-.1-.3-.2-.7-.3-1,.5-.1,1.1-.2,1.6-.3,0,.2.2.5.2.7ZM153.7,93.4c1.2.1,2.4.2,3.8.4-.2.5-.4,1.1-.5,1.4,1.1.5,2.1.9,3.5,1.5-4.4,1.9-5.6,1.2-6.7-3.3ZM152.7,86.4c1.5.3,2.5.6,3.4.8-.4,1-.8,1.9-1.5,3.6-.7-1.7-1.2-2.7-1.9-4.4ZM156.9,84.2s0,0,0,.1c.2.2.3.3.5.5,0,.1,0,.2,0,.3-.3,1.7-1.2.9-2,.6,0,0,0,0,0,0h0s0,0,0,0h0s0,0,0,0c-.7-.3-1.3-.6-2-1-.1,0-.3,0-.4,0-.3.1-.6.2-.8.4,0-.1-.1-.4-.1-.4.3-.2.6-.3.9-.4,0,0,0,0,0-.1h0s0,0,0,0h0c.3-.3.6-.6.9-.9.4,0,.8,0,1.1,0,.1,0,.3,0,.4,0,.4,0,.7,0,1.1,0,.1.3.3.6.4,1,0,0,0,0,0,0ZM156.6,62.1c-.2,1-.4,1.7-.6,2.5-.2,0-.3,0-.5.1-.2-.9-.5-1.8-.7-2.6-.6.5-1.3,1-2.2,1.7-.4-1.4-.6-2.2-.9-3.1,1.7.5,3.2,1,4.8,1.4ZM147.8,104.5c.3-.2.5-.5.8-.7,2.2,2.4,4.3,4.8,6.8,7.5-2.2-.2-4-.3-5.9-.4-.5.7-1.2,1.6-1.8,2.4-.1,0-.2-.1-.4-.2,1-2,2-3.9,3-5.7-.8-.9-1.6-1.9-2.4-2.9ZM141,96.4h.3c0,.3,0,.7,0,1-.2,0-.4,0-.6,0,0-.3.1-.6.2-.9ZM141,102.6c.1-.3.3-.6.4-.9,0,0,0,0,0,0h0c0,0,0,0,0,0,.3-.3.7-.6,1-.9,0,0,0,0,0-.1,0,0,.1,0,.1,0,0,0,0,0,0,0,1.6.3,1.6.4,1.3,1.5-.1.1-.3.3-.4.4,0,.5,0,.9,0,1.4,0,.2,0,.4,0,.6-.1.1-.3.2-.4.4,0,0,0-.2-.1-.3-.4,0-.7,0-1.1,0-.1,0-.2,0-.3,0-.2-.6-.3-1.2-.5-1.8,0,0,0-.2-.1-.2,0,0,0,0,0,0ZM143.5,106.5s0,0,0,0c-.1,0-.2,0-.3,0,0,0,0-.2,0-.2.1,0,.2.1.3.2,0,0,0,0,.1,0h0s0,0,0,.1c0,0,.2.2.2.3,0,0-.2,0-.3,0,0,0,0-.2,0-.3,0,0,0,0,0,0ZM137,84.7c.1,0,.3,0,.4,0,.4,0,.8,0,1.3,0,0,0,0,0,0,0,.3.2.5.5.8.7,0,0,0,0-.1,0,0,0,0,0,0,0,0,0,0,0,.1,0,0,.3,0,.5,0,.8-.2.2-.3.4-.5.5-.2,0-.3,0-.5,0-1.9-.4-3.2-1.8-3-3.2.5.4,1,.8,1.5,1.2ZM137.1,120.2c.1,0,.3-.1.4-.2h0c.4-.1.7-.3,1.1-.5.3.3.6.6.9.9-.7,1.5-1.4,1.2-2.1,0,0,0,0,0,0,0-.1-.1-.2-.2-.3-.3ZM134.4,109.1s0,0,0,0c0,0,0,0,0,0,0-.1,0-.2.1-.3,0,0,.1.2.2.3-.1,0-.2,0-.3,0,0,0,0,0,0,0h0s0,0,0,0c0,0,0,0,0,0,0,.1,0,.2,0,.3,0,0-.2-.1-.2-.2.1,0,.2,0,.3-.1ZM127.4,93.6s0,0,0,0c0-.1,0-.2.1-.4.1.1.2.2.3.3l.4.4c-.2,0-.4.1-.6.2,0,0-.1,0-.1,0,0,0,0,0,0,0,0,0,0,0,0,0h0s0,0,0,0c-.2-.1-.5-.2-.7-.3.2,0,.3-.1.5-.2,0,0,0,0,0,0ZM156.9,165.1h-.2c0,0-.2,0-.2,0-1.5-.1-3.3,0-3.3-2.2-2.6,1-5.5-1-6.5-4.3-.4.1-.7.3-1.1.5.1-.7.3-1.3.5-2.3-1.7-.1-3.3-.2-4.5-.3.1-.2.7-.9,1.5-1.9-.7,0-1,0-1.8.1,1-.6,1.6-.9,2.6-1.4-.8-.7-1.4-1.3-2.1-1.8,0-.2-.2-.3-.3-.5,0-1.1-.2-2.4,1.5-2.5,0,0,0,0,0,0,0,0,0,0,0,0,.2-.5.3-1,.5-1.5,0,0,0,0,0,0,0,0,0,0,0,0-.5-.3-1-.6-1.5-1l-6.7,3.5c-.3,0-.5,0-.8,0-.4-.2-.8-.4-1.2-.6-.3,0-.5,0-.8,0,0,.1-.2.3-.3.4,0-.2-.2-.4-.2-.6-.1-.1-.3-.3-.4-.4-2.5,1.7-3.7,0-4.8-1.8-.3.1-.6.3-.9.4-.3,0-.6,0-.9,0-.9.4-1.9.8-2.8,1.2-.4.2-.8.7-1.1.6-1.6-.5-3.1-1.2-4.6-1.8-.6-.4-1.5-.8-1.6-1.2-.2-1.2,0-2.5.2-3.8.3,0,.6,0,.8,0,1.9.7,3.8,1.5,5.7,2.2-.2-.3-.3-.9-.5-1-2.1-.8-1.6-2.1-.5-4,0,3.9,2.2,4,4.8,3.7.4-.8.9-1.6,1.3-2.4-.9-.8-2-1.4-2.6-2.4-.4-.7-.1-1.8-.1-2.7.6.2,1.3.2,1.8.5.7.3,1.3.7,2,1.1.7,0,1.3,0,2,0,0-.1,0-.3-.1-.4-1-.5-2-1-3.1-1.5,0-.5-.2-1.4-.3-2.2-1.1-1.1-2.2-2.2-3.4-3.4,0-.3,0-.6-.1-1h0s0,0,0,0c-.2-.1-.4-.3-.6-.4,0,0,0,0,0,0-.3-.2-.6-.4-.9-.6-2.2-.6-4.4-1.2-6.6-1.9,3.2.1,6.6-1.9,9.5.8.1.5.3,1,.4,1.5,0,0,0,0,.1,0h0s0,0,0,0c0,0,0,0,0,0,.8-.3,1.6-.7,2.4.3.4.5,1.3.4,1.8.9.4.4.6,1.1.9,1.7.3,0,.6,0,.9.1.8-1.4,1.7-2.8,2.5-4.2,0-.3.2-.5.3-.8.6,0,1.1.1,1.7.2,0,0,0,0,0,0,1.9,0,3.8-.1,5.7-.2.7,0,1.4,0,2.1,0,0,0,.1,0,.1,0h0s0,0,0,0h0c0-.3,0-.6,0-.9-1.9-.4-3.8-.7-5.7-1.1,2.9,0,6-2,8.6.6,0,0,0,0,.1,0h0c.2.7.4,1.3.6,1.9.2,0,.5,0,.7,0,.2.2.4.3.6.5,0,0,0,0,0,0h0s0,0,0,0h.8c.2,0,.5,0,.7,0,.7.3,1.4.6,2.1,1,0,0,.2,0,.2,0,1.1,0,2,0,1.1,1.5.4.3.9.9,1.3.9,2.2-.2,2.2,1.1,2.1,2.8-2.9-.4-1.6,1.5-1.5,2.8,0,.4,0,1.2,0,1.2-2.3.4-1.1,1.7-.8,2.4-.9,1.3-1.7,2.4-2.4,3.5.6.3,1.1.6,1.8.9-.9,1.9-1.9,3.9-2.9,6,1.9,2.8,4.8,5.1,7,5.5-1.4.8-2.6,1.4-.4,2.7,1.4.9,1.5,2.2.8,4-.2.5,0,1.1,0,1.6,0,.5.4,1,.7,1.8-.8-.2-1.2-.3-1.7-.5ZM179.8,128c-.1.2-.3.3-.4.5-2.3-.4-4.7-.2-6.5-2.1-.2-.6-.3-1.2-.5-1.8h-.1c0-.1,0-.1,0,0h0s0,0,0,0c0,0,0,0,0,0-.3,0-.7-.2-1.6-.4,1.2-.7,2-1.2,2.9-1.7-.1-.2-.3-.4-.4-.6-.9.4-2.3.6-2.6,1.3-1.1,2.6-2,.9-3.5.4,1.4,1.9,2.8,3.7,4.2,5.6-.2.2-.4.4-.6.5-1.4-.8-2.7-1.7-4.1-2.5-1.6-.3-3.1-.6-4.7-1-.3.1-.6.3-.8.4-.2,0-.5,0-.7,0-.3,0-.5,0-.8,0-.2-.2-.3-.3-.5-.5,0,0,0,0,0,0h0c-.1-.3-.3-.4-.4-.6-1.6-.5-3.9.4-4.2-2.3-1.1-.5-2.2-.9-3.2-1.4,0,.2-.2.3-.2.5-.5-.7-1-1.5-1.5-2.2-.2,0-.5,0-.7,0-.1,0-.3-.1-.4-.2,0-.1.2-.2.3-.3,0,0,0,0,0,0,0-.4,0-.7,0-1.1h0c-.1-.1-.3-.3-.4-.4,0,0,0,0,0,0h0s0,0,0,0c-.1,0-.2,0-.3-.1,0,0,.2-.1.3-.2,0,.1,0,.2,0,.3,0,0,0,0,0,0,0,0,0,0,0,0,.2,0,.5,0,.7,0,.2.1.5.2.7.3h0c0,.1.1.1.1.1h.1c.2-.6.8-1.4.6-2-.8-2.1.6-1.9,1.7-2-.3,1.3-.5,2.7-.8,4.2,1.2-.7,1.9-1.1,2.7-1.6-.2.2-.3.4-.5.6.6.7,1.3,1.5,1.9,2.2.5.7,1,1.4,1.6,2.1h1.5c1-.5,2-1,3-1.5.5-.8.9-1.7,1.4-2.6.2.2.5.7.9,1.1.5-.9,1-1.6,1.4-2.4.2,0,.3.2.5.2,0,.5-.2,1-.2,1.4.8.3,1.6.6,2.8,1.1.1-.7.3-1.4.4-2.1,1.3-1.6,2.5-1.2,3.6.2.9,1.2,1.8,2.5,2.6,3.8.3.4.7.8,1,1.3,0,.2,0,.3,0,.5.2,0,.3,0,.5,0,1,.3,1.9.6,3.2.9-1,.3-1.6.4-2.3.6-.3,0-.6,0-.9,0-.2,0-.3,0-.5,0,0,0,0,0,0,0,0,0,0,0,0,0,0,.5,0,1.1,0,1.6h0c1.5.2,3,.3,4.7.4-.4.7-.6,1-.8,1.4ZM251.5,111.1c-2.4,1.1-2.3,2.3-2,4.7.3,2.3-1.2,4.8-2.1,7.2-.1.4-1,.5-1.4.9-.9.7-1.7,1.2-1.2,2.8.4,1.1.2,2.7-.2,3.9-.9,2.8-3.5,3.7-7,2.9-.9-.2-1.8-.1-2.7,0-.7,0-1.5.2-2.2.1-2-.2-4-.5-5.9-.8-.2-.1-.3-.2-.5-.4h0c-1,.6-2.1,1.2-2.7,1.6-2.3-1.8-4.5-3.4-6.6-5-1.8-1.3-4.6-1.2-7.2.6-.1-.8-.3-1.5-.4-2.1h0s0,0,0,0c-.1-.1-.3-.3-.4-.4,0,0,0,0-.1,0,0,0,0,0,0,0-.2,0-.3,0-.5-.1-1.9-1.2-3.9-2.4-5.8-3.7-1.8-1.3-3.5-2.7-5.2-4.1-.3-.2-.4-.8-.5-1.2-.3-.7-.6-1.3-.9-2-1.9.4-3.2-.2-4.4-1.7-.6-.7-1.8-.9-2.9-1.3,2.5-.1,4.9-.3,7.3-.4,0-.1,0-.2,0-.3-.2-.2-.3-.4-.5-.5,0-.4,0-.8,0-1.1,0,0,0-.2,0-.3,0,0,0,0,0,0,0,0-.2,0-.3,0-.6-.7-1.1-1.3-1.7-2,0,0,0,0,0,0h0s0,0,0,0h-.2c-.6-.3-1.1-.6-1.7-1,0-.3,0-.7,0-1,0-.3,0-.7,0-1,0-.2,0-.4,0-.6.2-.5.3-1,.5-1.5-.9-.6-1.8-1.3-2.8-2,1.8.4,3.3.7,5.2,1.1-1.3-2.6-2.5-4.8-3.7-7.1-.3,0-.6-.2-1-.3,0-.2,0-.4,0-.6h0c-.2-.3-.3-.6-.5-1h0s-.4-1.1-.4-1.1c0,0,0,0,0,0-.1-.1-.2-.3-.3-.4.5-.7,1-1.4,1.7-2.4-3.1,1.4-5.1-.8-7.2-2.9.6,0,1.2-.2,1.8-.3,0,0,0-.2,0-.3-.9-.1-1.7-.3-2.6-.4,0-.3,0-.6,0-.9,1.6-.1,3.3-.3,5-.4-.2-1-.5-1.8-.8-3h-8.6c0-.2,0-.4,0-.6,2.4,0,4.7,0,7.1,0,1.4,0,2-.4,1.6-1.9h-1.2c-.2-.4-.4-.8-.6-1.2.3-.3.5-.5.8-.8.1,0,.3,0,.4,0,.3,0,.7,0,1,0,0,0,0,0,0,0,0,0,0,0,0,0,1.2,0,2.4,0,3.7,0,.5-.3.9-.5,2.1-1.2-3.4-.7-6.2-1.2-9.1-1.8,0-.2,0-.3.1-.5,1.6,0,3.1-.2,4.9-.3-.8-1.1-1.5-2.2-2.4-3.5,1.1-.3,1.9-.5,2.9-.7-.4-.5-.7-1-1.4-1.9h9.3c-.2-.5-.6-1.3-1-2.2,0,.4-.2.8-.3,1.3-.8-.7-1.5-1.3-2.8-2.4,3.7,1.3,5.6-.9,7.9-2.2-.1-.6-.2-1.2-.3-1.7,0,0,0,0,0,0,0,0,0,0,0,0h0c0-.2.2-.5.3-.7.4-.5.9-1.4,1.3-1.4,3.1.1,6.1.5,8.7.7,1.7-.7,3.2-1.7,4.6-1.8,8.6,0,15.8,3.2,22.5,8.6,5,4.1,7.1,9.5,9.2,14.9,1.5,3.8,1.1,8.1-.3,12.2-.6,1.6-.9,3.3.4,5,2.1,2.7,3.9,5.5,5.8,8.4,1.8,2.8,1.6,4.3-1.2,5.6ZM280.6,120c-.2,0-.4.2-.6.3.6.3,1.2.6,1.7.9-.5.8-.9,1.5-1.4,2.3.1,0,.3,0,.4,0-.4,2.1-.8,4.2-1.2,6.3-.2,0-.4,0-.7.1-.2-.8-.5-1.6-.5-2.4,0-2.1.3-4.2-1.7-5.9-.6-.5-.3-2.2-.5-3.8-1.4-.9-1.9-2.4-.8-4.5.7-1.4.3-2.7-1.3-3.5-.7-.3-1.4-.8-2.2-1.2-2.6-1.6-2.8-3.1-.7-5.3,1.7.7,3.4,1.4,5.1,2.1,1.7.8,3.3,1.7,5.3,2.7h-3c1.3.7,2.1,1.2,2.7,1.5-.7.9-1.7,1.7-1.6,2.3.3,1.4.9,2.8,1.6,4.1.5,1,1.8,1.9,1.8,2.9,0,1.1-1.4,1.1-2.5,1ZM288.6,95.2c-1.3-.2-2.5-.3-4.5-.6,1.9-.8,3-1.2,4.7-1.9-2.4-.3-4.3-.5-6.4-.8.5-.2.9-.4,1.5-.6-.6-.1-1.1-.3-1.7-.4,0,0,0-.2,0-.2.8,0,1.6-.1,2.4-.2,0,0,0-.2-.1-.3-1,0-2-.2-3.1-.3.9-2,2.2-2.7,4.1-1.9,1.8.7,3.5,1.6,5.2,3-1.5,0-3.1.2-3.9.2,1.2.1,3,.3,4.9.5,0,.2,0,.5,0,.7-1.1.7-2.2,1.4-3.2,2.2,0,.2.2.4.2.5ZM327.5,98.6c-2.4-.2-4.3-.4-6.3-.6,3.8-2.1,5-2.4,8-1.3-.8.9-1.4,1.6-1.7,1.9ZM330.3,95.6h-5.1c0-.1,0-.3,0-.4.7-.1,1.4-.2,2.6-.4-1.1,0-1.8-.1-2.9-.2.9-.3,1.3-.5,1.9-.7-.5-.3-.9-.5-1.5-.9,1.3-.3,2.3-.5,3.3-.7,0-.2,0-.3,0-.5-1.4-.3-2.8-.6-3.8-.8.5-.5,1.2-1.2,1.9-1.9,0,0-.1,0-.2,0-.6,0-1.2,0-1.7,0,0-.2.1-.5.2-.7.5.2,1,.5,1.5.7,0,0,.2,0,.3,0,0,0,0,.1,0,.1.3-.2.8-.7.9-.6,1,1.1,2.1,2.2,3,3.5.2.3-.3,1.1-.3,1.7,0,.6.1,1.3.2,2Z"/>
  <g>
    <path class="cls-1" d="M160.7,186.6h-1.9l-1-2.6h-4l-1,2.6h-1.8l3.9-10h1.9l3.9,10ZM155.9,178.5l-1.6,4.2h3l-1.5-4.2Z"/>
    <path class="cls-1" d="M167.2,179.6c-.1-1.2-.8-1.8-2.2-1.8s-1.1.1-1.4.4c-.3.2-.5.6-.5,1s.1.7.4.8.8.3,1.6.5c.2,0,.4.1.5.1,1.1.3,1.9.5,2.3.8.9.5,1.3,1.2,1.3,2.2s0,.8-.2,1.2-.4.7-.6.9c-.3.2-.6.4-.9.6-.3.2-.7.3-1.1.3s-.8.1-1.2.1c-1.3,0-2.3-.3-3-.9s-1.2-1.5-1.2-2.6h1.7c0,.7.2,1.3.7,1.6.5.3,1.1.5,1.9.5s1.2-.1,1.6-.4c.4-.3.6-.7.6-1.2s-.1-.6-.3-.8c-.2-.2-.4-.3-.7-.4-.2,0-.6-.2-1.2-.3,0,0-.1,0-.2,0-1.2-.3-2.1-.6-2.5-.8-.8-.4-1.2-1.1-1.3-1.9v-.2c0-.9.3-1.6,1-2.1s1.6-.8,2.7-.8,2,.3,2.6.8,1,1.3,1.1,2.4h-1.7Z"/>
    <path class="cls-1" d="M177.5,186.6h-6.8v-10h1.8v8.5h5.1v1.5Z"/>
    <path class="cls-1" d="M185.9,178.1h-5.4v2.6h5.1v1.4h-5.1v2.9h5.5v1.5h-7.3v-10h7.2v1.5Z"/>
  </g>
  <g>
    <path class="cls-1" d="M266.5,186.6h-1.9l-1-2.6h-4l-1,2.6h-1.8l3.9-10h1.9l3.9,10ZM261.8,178.5l-1.6,4.2h3l-1.5-4.2Z"/>
    <path class="cls-1" d="M273,179.6c-.1-1.2-.8-1.8-2.2-1.8s-1.1.1-1.4.4c-.3.2-.5.6-.5,1s.1.7.4.8c.2.1.8.3,1.6.5.2,0,.4.1.5.1,1.1.3,1.9.5,2.3.8.9.5,1.3,1.2,1.3,2.2s0,.8-.2,1.2-.3.7-.6.9c-.3.2-.6.4-.9.6-.3.2-.7.3-1.1.3-.4,0-.8.1-1.2.1-1.3,0-2.3-.3-3-.9-.8-.6-1.2-1.5-1.2-2.6h1.7c0,.7.2,1.3.7,1.6.5.3,1.1.5,1.9.5s1.2-.1,1.6-.4c.4-.3.6-.7.6-1.2s0-.6-.3-.8c-.2-.2-.4-.3-.7-.4s-.6-.2-1.2-.3c0,0-.1,0-.2,0-1.2-.3-2.1-.6-2.5-.8-.8-.4-1.2-1.1-1.3-1.9v-.2c0-.9.3-1.6,1-2.1.7-.5,1.6-.8,2.7-.8s2,.3,2.6.8,1,1.3,1.1,2.4h-1.7Z"/>
    <path class="cls-1" d="M283.4,186.6h-6.8v-10h1.8v8.5h5.1v1.5Z"/>
    <path class="cls-1" d="M291.8,178.1h-5.4v2.6h5.1v1.4h-5.1v2.9h5.5v1.5h-7.3v-10h7.2v1.5Z"/>
  </g>
</svg>