<?xml version="1.0" encoding="UTF-8"?>
<svg id="l-header_x5F__x5F_logo" xmlns="http://www.w3.org/2000/svg" viewBox="0 0 2000 2000">
  <defs>
    <style>
      .cls-1 {
        fill: #445fac;
      }
    </style>
  </defs>
  <g>
    <path class="cls-1" d="M360.28977,1054.36808h-20.5215l-10.41557-28.94577h-43.1891l-10.71987,28.94577h-19.75274l42.11605-109.19528h20.36668l42.11605,109.19528ZM308.0678,965.0857l-17.00337,45.94381h33.23799l-16.23462-45.94381Z"/>
    <path class="cls-1" d="M430.68427,977.48188c-1.12644-12.7592-9.03821-19.14414-23.74066-19.14414-6.53442,0-11.6381,1.356-15.31638,4.068-3.67294,2.70132-5.50941,6.40629-5.50941,11.09357,0,4.39899,1.35066,7.40995,4.05732,9.04355,2.70666,1.63361,8.70188,3.61956,17.99635,5.96853,2.45041.71537,4.33493,1.22787,5.66423,1.53751,12.1506,3.05367,20.42006,5.81905,24.80837,8.26412,9.7002,5.21045,14.55296,13.32509,14.55296,24.35459,0,4.79404-.8168,9.13965-2.45041,13.01545-1.63361,3.87581-3.82776,7.12166-6.58781,9.72689-2.75471,2.60523-6.02192,4.77269-9.80163,6.50239-3.77437,1.74038-7.70891,2.9896-11.79292,3.75836-4.08401.76876-8.31751,1.15313-12.71116,1.15313-13.68278,0-24.76033-3.26721-33.23265-9.80163-8.47232-6.53442-12.71116-16.13318-12.71116-28.79629h18.83984c0,7.96516,2.59989,13.85895,7.81034,17.69205,5.20511,3.82242,11.99579,5.73363,20.36668,5.73363,7.35122,0,13.09553-1.50548,17.22759-4.51644,4.1374-3.01096,6.20343-7.21776,6.20343-12.63108,0-3.47008-1.09441-6.3102-3.2939-8.49902-2.19416-2.19949-4.56448-3.75836-7.12166-4.67659-2.55184-.91824-6.99354-2.18882-13.31975-3.82242-.71537-.20287-1.27592-.36302-1.68699-.45912-13.576-3.47008-22.51279-6.33155-26.79966-8.57376-8.88339-4.60185-13.62939-11.69149-14.24333-21.29025v-2.14611c0-9.69486,3.65159-17.4358,10.94942-23.20146,7.29784-5.76566,17.07811-8.65917,29.33015-8.65917,11.84097,0,21.49312,2.80809,28.94577,8.42428,7.45266,5.61618,11.38185,14.24333,11.79292,25.88143h-18.22591Z"/>
    <path class="cls-1" d="M544.26252,1054.36808h-74.73476v-109.0458h19.29896v92.50689h55.4358v16.53892Z"/>
    <path class="cls-1" d="M635.94727,961.40208h-59.5732v28.94577h55.29166v15.4712h-55.29166v32.1596h60.49143v16.38944h-79.48076v-109.0458h78.56252v16.0798Z"/>
  </g>
  <g>
    <path class="cls-1" d="M1517.36792,1054.36808h-20.5215l-10.41023-28.94577h-43.1891l-10.71987,28.94577h-19.75274l42.11071-109.19528h20.37202l42.11071,109.19528ZM1465.14595,965.0857l-16.99803,45.94381h33.23799l-16.23996-45.94381Z"/>
    <path class="cls-1" d="M1587.76242,977.48188c-1.1211-12.7592-9.03287-19.14414-23.73532-19.14414-6.53442,0-11.6381,1.356-15.32172,4.068-3.67294,2.70132-5.50941,6.40629-5.50941,11.09357,0,4.39899,1.356,7.40995,4.05732,9.04355,2.712,1.63361,8.70188,3.61956,18.00169,5.96853,2.44507.71537,4.33493,1.22787,5.65889,1.53751,12.1506,3.05367,20.4254,5.81905,24.81371,8.26412,9.69486,5.21045,14.55296,13.32509,14.55296,24.35459,0,4.79404-.82214,9.13965-2.45575,13.01545-1.63361,3.87581-3.82242,7.12166-6.58781,9.72689-2.75471,2.60523-6.02192,4.77269-9.80163,6.50239-3.76904,1.74038-7.70891,2.9896-11.78758,3.75836-4.08935.76876-8.31751,1.15313-12.71649,1.15313-13.67744,0-24.76033-3.26721-33.22731-9.80163-8.47766-6.53442-12.71649-16.13318-12.71649-28.79629h18.84518c0,7.96516,2.59455,13.85895,7.805,17.69205,5.21045,3.82242,12.00112,5.73363,20.37202,5.73363,7.34588,0,13.09019-1.50548,17.22225-4.51644,4.14274-3.01096,6.20343-7.21776,6.20343-12.63108,0-3.47008-1.08907-6.3102-3.28856-8.49902-2.19949-2.19949-4.56982-3.75836-7.12166-4.67659-2.55184-.91824-6.99354-2.18882-13.32509-3.82242-.71537-.20287-1.27058-.36302-1.68699-.45912-13.57067-3.47008-22.50745-6.33155-26.79966-8.57376-8.88339-4.60185-13.62405-11.69149-14.24333-21.29025v-2.14611c0-9.69486,3.65159-17.4358,10.95476-23.20146,7.2925-5.76566,17.07277-8.65917,29.33015-8.65917,11.84097,0,21.49312,2.80809,28.94577,8.42428,7.45266,5.61618,11.38185,14.24333,11.78758,25.88143h-18.22591Z"/>
    <path class="cls-1" d="M1701.34601,1054.36808h-74.7401v-109.0458h19.3043v92.50689h55.4358v16.53892Z"/>
    <path class="cls-1" d="M1793.03076,961.40208h-59.57854v28.94577h55.297v15.4712h-55.297v32.1596h60.49677v16.38944h-79.48076v-109.0458h78.56252v16.0798Z"/>
  </g>
</svg>