<?xml version="1.0" encoding="UTF-8"?>
<svg id="l-header_x5F__x5F_logo" xmlns="http://www.w3.org/2000/svg" viewBox="0 0 2647 346">
  <defs>
    <style>
      .cls-1 {
        fill: #fff;
      }

      .cls-2 {
        fill: #445fac;
      }
    </style>
  </defs>
  <rect class="cls-1" width="2647" height="346"/>
  <polygon points="1350.52257 184.79723 1350.52257 184.79858 1350.52459 184.79858 1350.52257 184.79723"/>
  <g>
    <g>
      <path class="cls-2" d="M648.82098,228.42205h-20.69285l-10.50254-29.18747h-43.54973l-10.80938,29.18747h-19.91767l42.46771-110.10706h20.53674l42.46771,110.10706ZM596.16296,138.39416l-17.14535,46.32743h33.51552l-16.37018-46.32743Z"/>
      <path class="cls-2" d="M719.80327,150.89385c-1.13585-12.86574-9.11368-19.30399-23.93889-19.30399-6.58898,0-11.73528,1.36732-15.44427,4.10196-3.70361,2.72388-5.55542,6.45979-5.55542,11.1862,0,4.43572,1.36194,7.47182,4.0912,9.11907,2.72926,1.64725,8.77454,3.64978,18.14662,6.01837,2.47087.72134,4.37112,1.23813,5.71153,1.55035,12.25206,3.07916,20.59057,5.86764,25.01552,8.33312,9.78119,5.25396,14.67448,13.43636,14.67448,24.55795,0,4.83407-.82362,9.21596-2.47087,13.12413-1.64725,3.90817-3.85972,7.18113-6.64281,9.80811-2.77771,2.62698-6.0722,4.81254-9.88347,6.55668-3.80589,1.75491-7.77328,3.01457-11.89139,3.78974-4.11811.77517-8.38696,1.16276-12.81729,1.16276-13.79703,0-24.96707-3.29449-33.51014-9.88347-8.54307-6.58898-12.81729-16.2679-12.81729-29.03674h18.99715c0,8.03167,2.6216,13.97467,7.87556,17.83978,5.24858,3.85434,12.09595,5.78151,20.53674,5.78151,7.4126,0,13.20488-1.51805,17.37144-4.55415,4.17195-3.0361,6.25523-7.27803,6.25523-12.73655,0-3.49905-1.10355-6.36289-3.32141-8.56998-2.21248-2.21786-4.6026-3.78974-7.18113-4.71564-2.57315-.9259-7.05193-2.20709-13.43097-3.85434-.72134-.20456-1.28657-.36605-1.70108-.46295-13.68936-3.49905-22.70077-6.38442-27.02344-8.64535-8.95757-4.64028-13.7432-11.78911-14.36226-21.46802v-2.16403c0-9.77581,3.68208-17.58139,11.04085-23.39519,7.35877-5.81381,17.22071-8.73148,29.57505-8.73148,11.93984,0,21.67258,2.83154,29.18747,8.49462,7.51488,5.66308,11.47689,14.36226,11.89139,26.09754h-18.37809Z"/>
      <path class="cls-2" d="M834.3299,228.42205h-75.35879v-109.95633h19.46011v93.27931h55.89868v16.67701Z"/>
      <path class="cls-2" d="M926.7802,134.67979h-60.07063v29.18747h55.75334v15.60038h-55.75334v32.42813h60.99653v16.52629h-80.14442v-109.95633h79.21851v16.21406Z"/>
    </g>
    <g>
      <path class="cls-2" d="M1815.56067,228.42205h-20.69285l-10.49715-29.18747h-43.54973l-10.80938,29.18747h-19.91767l42.46233-110.10706h20.54212l42.46233,110.10706ZM1762.90265,138.39416l-17.13997,46.32743h33.51552l-16.37556-46.32743Z"/>
      <path class="cls-2" d="M1886.54296,150.89385c-1.13046-12.86574-9.1083-19.30399-23.93351-19.30399-6.58898,0-11.73528,1.36732-15.44966,4.10196-3.70361,2.72388-5.55542,6.45979-5.55542,11.1862,0,4.43572,1.36732,7.47182,4.0912,9.11907,2.73464,1.64725,8.77454,3.64978,18.152,6.01837,2.46549.72134,4.37112,1.23813,5.70614,1.55035,12.25206,3.07916,20.59595,5.86764,25.02091,8.33312,9.77581,5.25396,14.67448,13.43636,14.67448,24.55795,0,4.83407-.82901,9.21596-2.47625,13.12413-1.64725,3.90817-3.85434,7.18113-6.64281,9.80811-2.77771,2.62698-6.0722,4.81254-9.88347,6.55668-3.80051,1.75491-7.77328,3.01457-11.88601,3.78974-4.1235.77517-8.38696,1.16276-12.82268,1.16276-13.79164,0-24.96707-3.29449-33.50476-9.88347-8.54845-6.58898-12.82268-16.2679-12.82268-29.03674h19.00254c0,8.03167,2.61621,13.97467,7.87017,17.83978,5.25396,3.85434,12.10133,5.78151,20.54212,5.78151,7.40722,0,13.1995-1.51805,17.36606-4.55415,4.17733-3.0361,6.25523-7.27803,6.25523-12.73655,0-3.49905-1.09816-6.36289-3.31602-8.56998-2.21786-2.21786-4.60798-3.78974-7.18113-4.71564-2.57315-.9259-7.05193-2.20709-13.43636-3.85434-.72134-.20456-1.28119-.36605-1.70108-.46295-13.68398-3.49905-22.69538-6.38442-27.02344-8.64535-8.95757-4.64028-13.73781-11.78911-14.36226-21.46802v-2.16403c0-9.77581,3.68208-17.58139,11.04623-23.39519,7.35339-5.81381,17.21533-8.73148,29.57505-8.73148,11.93984,0,21.67258,2.83154,29.18747,8.49462,7.51488,5.66308,11.47689,14.36226,11.88601,26.09754h-18.37809Z"/>
      <path class="cls-2" d="M2001.07497,228.42205h-75.36417v-109.95633h19.46549v93.27931h55.89868v16.67701Z"/>
      <path class="cls-2" d="M2093.52528,134.67979h-60.07601v29.18747h55.75872v15.60038h-55.75872v32.42813h61.00192v16.52629h-80.14442v-109.95633h79.21851v16.21406Z"/>
    </g>
  </g>
</svg>