<?xml version="1.0" encoding="UTF-8"?>
<svg id="l-header__logo" xmlns="http://www.w3.org/2000/svg" version="1.1" viewBox="0 0 137 16">
  <defs>
    <style>
      .cls-1 {
        fill: #000;
        stroke-width: 0px;
      }
    </style>
  </defs>
  <polygon class="cls-1" points="68.5 8 68.5 8 68.5 8 68.5 8"/>
  <g>
    <g>
      <path class="cls-1" d="M19.1,12h-1.5l-.8-2.2h-3.2l-.8,2.2h-1.5l3.1-8.1h1.5l3.1,8.1ZM15.2,5.4l-1.3,3.4h2.5l-1.2-3.4Z"/>
      <path class="cls-1" d="M24.3,6.3c0-.9-.7-1.4-1.8-1.4s-.9.1-1.1.3c-.3.2-.4.5-.4.8s.1.6.3.7.6.3,1.3.4c.2,0,.3,0,.4.1.9.2,1.5.4,1.8.6.7.4,1.1,1,1.1,1.8s0,.7-.2,1-.3.5-.5.7c-.2.2-.4.4-.7.5-.3.1-.6.2-.9.3s-.6,0-.9,0c-1,0-1.8-.2-2.5-.7s-.9-1.2-.9-2.1h1.4c0,.6.2,1,.6,1.3.4.3.9.4,1.5.4s1-.1,1.3-.3c.3-.2.5-.5.5-.9s0-.5-.2-.6c-.2-.2-.3-.3-.5-.3-.2,0-.5-.2-1-.3,0,0,0,0-.1,0-1-.3-1.7-.5-2-.6-.7-.3-1-.9-1.1-1.6v-.2c0-.7.3-1.3.8-1.7s1.3-.6,2.2-.6,1.6.2,2.2.6.8,1.1.9,1.9h-1.4Z"/>
      <path class="cls-1" d="M32.7,12h-5.6V3.9h1.4v6.9h4.1v1.2Z"/>
      <path class="cls-1" d="M39.6,5.1h-4.4v2.2h4.1v1.2h-4.1v2.4h4.5v1.2h-5.9V3.9h5.8v1.2Z"/>
    </g>
    <g>
      <path class="cls-1" d="M105.1,12h-1.5l-.8-2.2h-3.2l-.8,2.2h-1.5l3.1-8.1h1.5l3.1,8.1ZM101.3,5.4l-1.3,3.4h2.5l-1.2-3.4Z"/>
      <path class="cls-1" d="M110.4,6.3c0-.9-.7-1.4-1.8-1.4s-.9.1-1.1.3c-.3.2-.4.5-.4.8s.1.6.3.7c.2.1.6.3,1.3.4.2,0,.3,0,.4.1.9.2,1.5.4,1.8.6.7.4,1.1,1,1.1,1.8s0,.7-.2,1-.3.5-.5.7c-.2.2-.4.4-.7.5-.3.1-.6.2-.9.3-.3,0-.6,0-.9,0-1,0-1.8-.2-2.5-.7-.6-.5-.9-1.2-.9-2.1h1.4c0,.6.2,1,.6,1.3.4.3.9.4,1.5.4s1-.1,1.3-.3c.3-.2.5-.5.5-.9s0-.5-.2-.6c-.2-.2-.3-.3-.5-.3s-.5-.2-1-.3c0,0,0,0-.1,0-1-.3-1.7-.5-2-.6-.7-.3-1-.9-1.1-1.6v-.2c0-.7.3-1.3.8-1.7.5-.4,1.3-.6,2.2-.6s1.6.2,2.2.6.8,1.1.9,1.9h-1.4Z"/>
      <path class="cls-1" d="M118.8,12h-5.6V3.9h1.4v6.9h4.1v1.2Z"/>
      <path class="cls-1" d="M125.7,5.1h-4.4v2.2h4.1v1.2h-4.1v2.4h4.5v1.2h-5.9V3.9h5.8v1.2Z"/>
    </g>
  </g>
</svg>