<?xml version="1.0" encoding="UTF-8"?>
<svg id="l-header__logo" xmlns="http://www.w3.org/2000/svg" version="1.1" viewBox="0 0 110 110">
  <defs>
    <style>
      .cls-1 {
        fill: #000;
        stroke-width: 0px;
      }
    </style>
  </defs>
  <polygon class="cls-1" points="55 55 55 55 55 55 55 55"/>
  <g>
    <g>
      <path class="cls-1" d="M15.1,58.3h-1.2l-.6-1.7h-2.6l-.6,1.7h-1.2l2.5-6.6h1.2l2.5,6.6ZM11.9,52.9l-1,2.8h2l-1-2.8Z"/>
      <path class="cls-1" d="M19.3,53.6c0-.8-.5-1.1-1.4-1.1s-.7,0-.9.2c-.2.2-.3.4-.3.7s0,.4.2.5.5.2,1.1.4c.1,0,.3,0,.3,0,.7.2,1.2.3,1.5.5.6.3.9.8.9,1.5s0,.5-.1.8-.2.4-.4.6c-.2.2-.4.3-.6.4-.2.1-.5.2-.7.2s-.5,0-.8,0c-.8,0-1.5-.2-2-.6s-.8-1-.8-1.7h1.1c0,.5.2.8.5,1.1.3.2.7.3,1.2.3s.8,0,1-.3c.2-.2.4-.4.4-.8s0-.4-.2-.5c-.1-.1-.3-.2-.4-.3-.2,0-.4-.1-.8-.2,0,0,0,0-.1,0-.8-.2-1.4-.4-1.6-.5-.5-.3-.8-.7-.9-1.3h0c0-.7.2-1.2.7-1.5s1-.5,1.8-.5,1.3.2,1.7.5.7.9.7,1.6h-1.1Z"/>
      <path class="cls-1" d="M26.1,58.3h-4.5v-6.5h1.2v5.6h3.3v1Z"/>
      <path class="cls-1" d="M31.6,52.7h-3.6v1.7h3.3v.9h-3.3v1.9h3.6v1h-4.8v-6.5h4.7v1Z"/>
    </g>
    <g>
      <path class="cls-1" d="M84.6,58.3h-1.2l-.6-1.7h-2.6l-.6,1.7h-1.2l2.5-6.6h1.2l2.5,6.6ZM81.4,52.9l-1,2.8h2l-1-2.8Z"/>
      <path class="cls-1" d="M88.8,53.6c0-.8-.5-1.1-1.4-1.1s-.7,0-.9.2c-.2.2-.3.4-.3.7s0,.4.2.5c.2,0,.5.2,1.1.4.1,0,.3,0,.3,0,.7.2,1.2.3,1.5.5.6.3.9.8.9,1.5s0,.5-.1.8-.2.4-.4.6c-.2.2-.4.3-.6.4-.2.1-.5.2-.7.2-.2,0-.5,0-.8,0-.8,0-1.5-.2-2-.6-.5-.4-.8-1-.8-1.7h1.1c0,.5.2.8.5,1.1.3.2.7.3,1.2.3s.8,0,1-.3c.2-.2.4-.4.4-.8s0-.4-.2-.5c-.1-.1-.3-.2-.4-.3s-.4-.1-.8-.2c0,0,0,0-.1,0-.8-.2-1.4-.4-1.6-.5-.5-.3-.8-.7-.9-1.3h0c0-.7.2-1.2.7-1.5.4-.3,1-.5,1.8-.5s1.3.2,1.7.5.7.9.7,1.6h-1.1Z"/>
      <path class="cls-1" d="M95.6,58.3h-4.5v-6.5h1.2v5.6h3.3v1Z"/>
      <path class="cls-1" d="M101.1,52.7h-3.6v1.7h3.3v.9h-3.3v1.9h3.6v1h-4.8v-6.5h4.7v1Z"/>
    </g>
  </g>
</svg>